<?xml version="1.0" encoding="UTF-8"?>
<svg width="200px" height="200px" viewBox="0 0 200 200" version="1.1" xmlns="http://www.w3.org/2000/svg" xmlns:xlink="http://www.w3.org/1999/xlink">
	<style>
    .icon {
      fill: green;
    }
    @media (prefers-color-scheme: dark) {
      .icon {
        fill: red;
      }
    }
  </style>
    <!-- Generator: Sketch 63.1 (92452) - https://sketch.com -->
    <title>icon</title>
    <desc>Created with Sketch.</desc>
    <g id="icon" stroke="none" stroke-width="1" fill="none" fill-rule="evenodd">
        <path d="M187.722148,3.20559245 C191.63326,5.29727756 194.702722,8.36674045 196.794408,12.2778516 C198.886093,16.1889627 200,20.0683975 200,30.7666224 L200,169.233378 C200,179.931602 198.886093,183.811037 196.794408,187.722148 C194.702722,191.63326 191.63326,194.702722 187.722148,196.794408 C183.811037,198.886093 179.931602,200 169.233378,200 L30.7666224,200 C20.0683975,200 16.1889627,198.886093 12.2778516,196.794408 C8.36674045,194.702722 5.29727756,191.63326 3.20559245,187.722148 C1.14935962,183.877327 0.0380404605,180.063118 0.000959326263,169.771512 L8.28672246e-16,30.7666224 C-4.81482439e-16,20.0683975 1.11390733,16.1889627 3.20559245,12.2778516 C5.29727756,8.36674045 8.36674045,5.29727756 12.2778516,3.20559245 C16.1226726,1.14935962 19.9368822,0.0380404605 30.2284881,0.000959326263 L169.233378,1.24300837e-15 C179.931602,-7.22223659e-16 183.811037,1.11390733 187.722148,3.20559245 Z M45.0749668,22 C37.0512981,22 34.141722,22.8354305 31.2083887,24.4041943 C28.2750553,25.9729582 25.9729582,28.2750553 24.4041943,31.2083887 C22.8354305,34.141722 22,37.0512981 22,45.0749668 L22,45.0749668 L22,154.925033 C22,162.948702 22.8354305,165.858278 24.4041943,168.791611 C25.9729582,171.724945 28.2750553,174.027042 31.2083887,175.595806 C34.141722,177.164569 37.0512981,178 45.0749668,178 L45.0749668,178 L64.9250332,178 C72.9487019,178 75.858278,177.164569 78.7916113,175.595806 C81.7249447,174.027042 84.0270418,171.724945 85.5958057,168.791611 C87.1645695,165.858278 88,162.948702 88,154.925033 L88,154.925033 L88,45.0749668 C88,37.0512981 87.1645695,34.141722 85.5958057,31.2083887 C84.0270418,28.2750553 81.7249447,25.9729582 78.7916113,24.4041943 C75.858278,22.8354305 72.9487019,22 64.9250332,22 L64.9250332,22 Z M154.925033,112 L135.074967,112 C127.051298,112 124.141722,112.835431 121.208389,114.404194 C118.275055,115.972958 115.972958,118.275055 114.404194,121.208389 C112.835431,124.141722 112,127.051298 112,135.074967 L112,135.074967 L112,154.925033 C112,162.948702 112.835431,165.858278 114.404194,168.791611 C115.972958,171.724945 118.275055,174.027042 121.208389,175.595806 C124.141722,177.164569 127.051298,178 135.074967,178 L135.074967,178 L154.925033,178 C162.948702,178 165.858278,177.164569 168.791611,175.595806 C171.724945,174.027042 174.027042,171.724945 175.595806,168.791611 C177.164569,165.858278 178,162.948702 178,154.925033 L178,154.925033 L178,135.074967 C178,127.051298 177.164569,124.141722 175.595806,121.208389 C174.027042,118.275055 171.724945,115.972958 168.791611,114.404194 C165.858278,112.835431 162.948702,112 154.925033,112 L154.925033,112 Z M154.925033,22 L135.074967,22 C127.051298,22 124.141722,22.8354305 121.208389,24.4041943 C118.275055,25.9729582 115.972958,28.2750553 114.404194,31.2083887 C112.835431,34.141722 112,37.0512981 112,45.0749668 L112,45.0749668 L112,64.9250332 C112,72.9487019 112.835431,75.858278 114.404194,78.7916113 C115.972958,81.7249447 118.275055,84.0270418 121.208389,85.5958057 C124.141722,87.1645695 127.051298,88 135.074967,88 L135.074967,88 L154.925033,88 C162.948702,88 165.858278,87.1645695 168.791611,85.5958057 C171.724945,84.0270418 174.027042,81.7249447 175.595806,78.7916113 C177.164569,75.858278 178,72.9487019 178,64.9250332 L178,64.9250332 L178,45.0749668 C178,37.0512981 177.164569,34.141722 175.595806,31.2083887 C174.027042,28.2750553 171.724945,25.9729582 168.791611,24.4041943 C165.858278,22.8354305 162.948702,22 154.925033,22 L154.925033,22 Z" id="Combined-Shape" fill="#3B2F93"></path>
    </g>
</svg>