<svg xmlns="http://www.w3.org/2000/svg" xmlns:xlink="http://www.w3.org/1999/xlink" viewBox="0 0 400 400"><title>favicon-svg</title><defs><linearGradient x1="0%" y1="0%" x2="100%" y2="100%" id="linearGradient-1"><stop stop-color="#0DE2A2" offset="0%"/><stop stop-color="#1180E1" offset="100%"/></linearGradient><path d="M380 5c6 4 11 9 15 15v1c3 6 5 13 5 29v299c0 18-2 24-5 31-4 6-9 11-15 15h-1c-6 3-13 5-29 5H51c-18 0-24-2-31-5-6-4-11-9-15-15v-1c-3-6-5-13-5-29V51c0-18 2-24 5-31 4-6 9-11 15-15h1c6-3 13-5 29-5h299c18 0 24 2 31 5zM141 44H79c-11 0-16 1-20 3l-1 1c-4 2-8 6-10 10-3 5-4 9-4 22v241c0 11 1 16 3 20l1 1c2 4 6 8 10 10 5 3 9 4 20 4h62c12 0 17-1 21-3l1-1c4-2 8-6 10-10 3-5 4-9 4-20V80c0-12-1-17-3-21l-1-1c-2-4-6-8-10-10-5-3-9-4-22-4zm180 180h-62c-11 0-16 1-20 3l-1 1c-4 2-8 6-10 10-3 5-4 9-4 22v61c0 11 1 16 3 20l1 1c2 4 6 8 10 10 5 3 9 4 20 4h62c12 0 17-1 21-3l1-1c4-2 8-6 10-10 3-5 4-9 4-20v-62c0-12-1-17-3-21l-1-1c-2-4-6-8-10-10-5-3-9-4-22-4zm0-180h-62c-11 0-16 1-20 3l-1 1c-4 2-8 6-10 10-3 5-4 9-4 22v61c0 11 1 16 3 20l1 1c2 4 6 8 10 10 5 3 9 4 20 4h62c12 0 17-1 21-3l1-1c4-2 8-6 10-10 3-5 4-9 4-20V80c0-12-1-17-3-21l-1-1c-2-4-6-8-10-10-5-3-9-4-22-4z" id="path-2"/></defs><g id="favicon-svg" stroke="none" stroke-width="1" fill="none" fill-rule="evenodd"><g id="favicon"><g id="Combined-Shape"><use fill="#15AABF" xlink:href="#path-2"/><use fill="url(#linearGradient-1)" xlink:href="#path-2"/></g></g></g></svg>