<svg height="180" viewBox="0 0 180 180" width="180" xmlns="http://www.w3.org/2000/svg"><path d="m156.925033 0c8.023669 0 10.933245.8354305 13.866578 2.40419433 2.933334 1.56876384 5.235431 3.870861 6.804195 6.80419434l.171284.32608919c1.430175 2.77536464 2.202861 5.69927304 2.23291 13.09995834v134.2905968c0 8.023669-.835431 10.933245-2.404194 13.866578-1.568764 2.933334-3.870861 5.235431-6.804195 6.804195l-.326089.171284c-2.775364 1.430175-5.699273 2.202861-13.099958 2.23291h-134.2905972c-8.0236687 0-10.9332448-.835431-13.86657813-2.404194-2.93333334-1.568764-5.2354305-3.870861-6.80419434-6.804195l-.17128407-.326089c-1.43017486-2.775364-2.2028616-5.699273-2.23291026-13.099958v-134.2905972c0-8.0236687.8354305-10.9332448 2.40419433-13.86657813 1.56876384-2.93333334 3.870861-5.2354305 6.80419434-6.80419434l.32608919-.17128407c2.77536464-1.43017486 5.69927304-2.2028616 13.09995834-2.23291026zm-93.8775098 19.8h-27.4811369c-5.0716352.0262144-7.1178726.5560903-9.0337487 1.5330467l-.2867655.1498893c-2.0533334 1.0981347-3.6648014 2.7096027-4.7629361 4.7629361-1.0981346 2.0533333-1.682936 4.0900366-1.682936 9.7066047v108.0950462c0 5.355333.5316663 7.456066 1.5330467 9.419839l.1498893.286766c1.0981347 2.053333 2.7096027 3.664801 4.7629361 4.762936 1.9578294 1.047059 3.9005399 1.627425 8.9457689 1.679148l.7608358.003788h27.0950464c5.3553324 0 7.4560662-.531666 9.4198392-1.533047l.2867655-.149889c2.0533334-1.098135 3.6648014-2.709603 4.7629361-4.762936 1.0470586-1.95783 1.6274254-3.90054 1.6791478-8.945769l.0037882-.760836v-108.0950462c0-5.3553324-.5316663-7.4560662-1.5330467-9.4198392l-.1498893-.2867655c-1.0981347-2.0533334-2.7096027-3.6648014-4.7629361-4.7629361-2.0533333-1.0981346-4.0900366-1.682936-9.7066047-1.682936zm80.9999998 81-27.481137.000948c-5.071635.025266-7.117872.555142-9.033748 1.532099l-.286766.149889c-2.053333 1.098135-3.664801 2.709603-4.762936 4.762936s-1.682936 4.090037-1.682936 9.706605v27.095046c0 5.355333.531666 7.456066 1.533047 9.419839l.149889.286766c1.098135 2.053333 2.709603 3.664801 4.762936 4.762936 1.95783 1.047059 3.90054 1.627425 8.945769 1.679148l.760836.003788h27.095046c5.355333 0 7.456066-.531666 9.419839-1.533047l.286766-.149889c2.053333-1.098135 3.664801-2.709603 4.762936-4.762936 1.047059-1.95783 1.627425-3.90054 1.679148-8.945769l.003788-.760836v-27.095046c0-5.355333-.531666-7.456066-1.533047-9.419839l-.149889-.286766c-1.098135-2.053333-2.709603-3.664801-4.762936-4.762936s-4.090037-1.682936-9.706605-1.682936zm0-81-27.481137.0009479c-5.071635.0252665-7.117872.5551424-9.033748 1.5320988l-.286766.1498893c-2.053333 1.0981347-3.664801 2.7096027-4.762936 4.7629361-1.098135 2.0533333-1.682936 4.0900366-1.682936 9.7066047v27.0950464c0 5.3553324.531666 7.4560662 1.533047 9.4198392l.149889.2867655c1.098135 2.0533334 2.709603 3.6648014 4.762936 4.7629361 1.95783 1.0470586 3.90054 1.6274254 8.945769 1.6791478l.760836.0037882h27.095046c5.355333 0 7.456066-.5316663 9.419839-1.5330467l.286766-.1498893c2.053333-1.0981347 3.664801-2.7096027 4.762936-4.7629361 1.047059-1.9578294 1.627425-3.9005399 1.679148-8.9457689l.003788-.7608358v-27.0950464c0-5.3553324-.531666-7.4560662-1.533047-9.4198392l-.149889-.2867655c-1.098135-2.0533334-2.709603-3.6648014-4.762936-4.7629361-2.053333-1.0981346-4.090037-1.682936-9.706605-1.682936z" fill-rule="evenodd"/></svg>