<svg id="logo" viewBox="0 0 930 270" xmlns="http://www.w3.org/2000/svg"><g id="bentobox"><path d="M109 255V61H6v194zm-46-28H18V88h32c7 0 13 1 18 3s9 4 12 7l8 10c2 4 2 9 2 13a42 42 0 01-7 24c-2 2-4 5-7 6l-7 3a27 27 0 0124 12l5 11a43 43 0 01-1 26c-1 5-4 9-7 12-3 4-6 7-11 9s-10 3-16 3zm152 28V61H106v194zm-12-29h-85V88h85v31h-53v23h39v31h-39v22h53zm133 29V61H213v194zm-79-29h-33V88h31l37 68V88h34v138h-32l-37-68zm191 29V61H334v194zm-42-29h-32V119h-31V88h94v31h-31zm165 29V61H446v194zm-62-28c-7 0-14-2-21-5-6-2-12-7-17-12s-8-11-11-18c-2-6-3-13-3-21v-32c0-6 1-12 4-18s5-12 10-16c5-6 11-10 17-13 7-3 14-4 21-4a51 51 0 0138 17c5 4 8 10 10 16 3 6 4 12 4 18v32l-3 21c-2 7-6 13-11 18a52 52 0 01-38 17zm162 28V61H568v194zm-46-28h-45V88h32c7 0 13 1 18 3s9 4 12 7c4 3 6 6 8 10l2 13a42 42 0 01-7 24c-2 2-4 5-7 6-2 2-5 3-7 3 6 0 11 1 14 3l10 9 5 11a43 43 0 01-1 26c-1 5-3 9-6 12-3 4-7 7-12 9-4 2-10 3-16 3zm168 28V61H668v194zm-62-28c-7 0-14-2-20-5-7-2-13-7-18-12s-8-11-10-18l-4-21v-32c0-6 2-12 4-18s6-12 10-16c5-6 11-10 18-13 6-3 13-4 20-4a51 51 0 0139 17c4 4 7 10 10 16s3 12 3 18v32l-3 21c-2 7-5 13-10 18a52 52 0 01-39 17zm184 28V61H790v194zm-80-29h-35l37-69-37-69h35l18 36 18-36h35l-37 69 37 69h-35l-18-36z"/></g></svg>