<svg id="logo" height="270" viewBox="0 0 930 270" xmlns="http://www.w3.org/2000/svg"><g id="bentobox"><path d="m76.72 224.82v-16.74h-25.2v-35.1h52.02v35.1h-25.2v16.74h26.82v-1.62h1.62v-1.62h1.8v-1.8h1.62v-1.62h1.62v-1.62h1.62v-1.8h1.8v-1.62h1.62v-1.62h1.62v-1.8h1.8v-1.62h1.62v-35.1h-1.62v-1.8h-1.8v-1.62h-1.62v-1.62h-1.62v-1.62h-5.04v-1.8h5.04v-1.62h1.62v-1.62h1.62v-1.8h1.8v-1.62h1.62v-36.9h-1.62v-1.62h-1.8v-1.62h-1.62v-1.8h-1.62v-1.62h-1.8v-1.62h-1.62v-1.62h-1.62v-1.8h-1.62v-1.62h-1.8v-1.62h-1.62v-1.8h-1.62v-1.62h-25.2v16.74h25.2v36.9h-52.02v-36.9h25.2v-16.74h-43.56v122.22zm157.14-105.12v-16.74h-40.14v16.74zm-41.76 105.48v-16.74h-28.62v-35.28h53.64v-16.74h-53.64v-36.72h28.62v-16.74h-47.16v122.22zm41.76 0v-16.74h-40.14v16.74zm35.28-.54v-86.94h1.62v1.62h1.62v1.62h1.8v1.8h1.62v1.62h1.62v1.62h1.8v1.8h1.62v1.62h1.62v1.62h1.8v1.62h1.62v1.8h1.62v1.62h1.62v1.62h1.8v1.8h1.62v1.62h1.62v1.62h1.8v1.8h1.62v1.62h1.62v1.62h1.8v1.62h1.62v1.8h1.62v1.62h1.62v1.62h1.8v1.8h1.62v1.62h1.62v1.62h1.8v1.8h1.62v1.62h1.62v1.62h1.8v1.8h1.62v1.62h1.62v36.72h18.54v-122.22h-18.54v58.68h-1.62v-1.62h-1.62v-1.8h-1.8v-1.62h-1.62v-1.62h-1.62v-1.8h-1.8v-1.62h-1.62v-1.62h-1.62v-1.62h-1.8v-1.8h-1.62v-1.62h-1.62v-1.62h-1.62v-1.8h-1.8v-1.62h-1.62v-1.62h-1.62v-1.8h-1.8v-1.62h-1.62v-1.62h-1.62v-1.62h-1.8v-1.8h-1.62v-1.62h-1.62v-1.62h-1.62v-1.8h-1.8v-1.62h-1.62v-1.62h-1.62v-1.8h-1.8v-1.62h-1.62v-1.62h-1.62v-1.62h-1.8v-1.8h-1.62v-1.62h-1.62v-8.46h-18.54v122.22zm147.78.36v-105.48h35.1v-16.74h-88.74v16.74h35.28v105.48zm126.54 0v-1.62h1.62v-1.62h1.62v-1.62h1.8v-1.8h1.62v-1.62h1.62v-1.62h1.62v-1.8h1.8v-1.62h1.62v-1.62h1.62v-90.54h-1.62v-1.62h-1.62v-1.62h-1.8v-1.62h-1.62v-1.8h-1.62v-1.62h-1.62v-1.62h-1.8v-1.8h-1.62v-1.62h-1.62v-1.62h-1.8v-1.8h-28.44v16.74h26.82v88.74h-26.82v16.74zm-31.86 0v-16.74h-23.4v-88.74h23.4v-16.74h-23.4v1.8h-1.8v1.62h-1.62v1.62h-1.62v1.8h-1.8v1.62h-1.62v1.62h-1.62v1.8h-1.62v1.62h-1.8v1.62h-1.62v1.62h-1.62v1.8h-1.8v86.94h1.8v1.8h1.62v1.62h1.62v1.62h1.8v1.8h1.62v1.62h1.62v1.62h1.62v1.8h1.8v1.62h1.62v1.62h1.62v1.62zm114.3-.18v-16.74h-25.2v-35.1h52.02v35.1h-25.2v16.74h26.82v-1.62h1.62v-1.62h1.8v-1.8h1.62v-1.62h1.62v-1.62h1.62v-1.8h1.8v-1.62h1.62v-1.62h1.62v-1.8h1.8v-1.62h1.62v-35.1h-1.62v-1.8h-1.8v-1.62h-1.62v-1.62h-1.62v-1.62h-5.04v-1.8h5.04v-1.62h1.62v-1.62h1.62v-1.8h1.8v-1.62h1.62v-36.9h-1.62v-1.62h-1.8v-1.62h-1.62v-1.8h-1.62v-1.62h-1.8v-1.62h-1.62v-1.62h-1.62v-1.8h-1.62v-1.62h-1.8v-1.62h-1.62v-1.8h-1.62v-1.62h-25.2v16.74h25.2v36.9h-52.02v-36.9h25.2v-16.74h-43.56v122.22zm142.2.18v-1.62h1.62v-1.62h1.62v-1.62h1.8v-1.8h1.62v-1.62h1.62v-1.62h1.62v-1.8h1.8v-1.62h1.62v-1.62h1.62v-90.54h-1.62v-1.62h-1.62v-1.62h-1.8v-1.62h-1.62v-1.8h-1.62v-1.62h-1.62v-1.62h-1.8v-1.8h-1.62v-1.62h-1.62v-1.62h-1.8v-1.8h-28.44v16.74h26.82v88.74h-26.82v16.74zm-31.86 0v-16.74h-23.4v-88.74h23.4v-16.74h-23.4v1.8h-1.8v1.62h-1.62v1.62h-1.62v1.8h-1.8v1.62h-1.62v1.62h-1.62v1.8h-1.62v1.62h-1.8v1.62h-1.62v1.62h-1.62v1.8h-1.8v86.94h1.8v1.8h1.62v1.62h1.62v1.62h1.8v1.8h1.62v1.62h1.62v1.62h1.62v1.8h1.8v1.62h1.62v1.62h1.62v1.62zm89.1 0v-26.82h1.62v-1.62h1.8v-1.8h1.62v-1.62h1.62v-1.62h1.8v-1.62h1.62v-1.8h1.62v-1.62h1.8v-1.62h1.62v-1.8h1.62v-1.62h1.8v-1.62h1.62v-1.8h1.62v-1.62h1.62v-1.62h1.8v-5.04h1.62v5.04h1.62v1.62h1.8v1.62h1.62v1.8h1.62v1.62h1.8v1.62h1.62v1.8h1.62v1.62h1.62v1.62h1.8v1.8h1.62v1.62h1.62v1.62h1.8v1.62h1.62v1.8h1.62v1.62h1.8v26.82h18.36v-35.1h-1.62v-1.8h-1.8v-1.62h-1.62v-1.62h-1.62v-1.8h-1.8v-1.62h-1.62v-1.62h-1.62v-1.8h-1.8v-1.62h-1.62v-1.62h-1.62v-1.8h-1.62v-1.62h-1.8v-1.62h-1.62v-1.62h-1.62v-1.8h-1.8v-1.62h-1.62v-1.62h1.62v-1.8h1.8v-1.62h1.62v-1.62h1.62v-1.8h1.8v-1.62h1.62v-1.62h1.62v-1.62h1.62v-1.8h1.8v-1.62h1.62v-1.62h1.62v-1.8h1.8v-1.62h1.62v-1.62h1.62v-1.8h1.8v-1.62h1.62v-35.1h-18.36v26.82h-1.8v1.62h-1.62v1.62h-1.62v1.8h-1.8v1.62h-1.62v1.62h-1.62v1.62h-1.8v1.8h-1.62v1.62h-1.62v1.62h-1.62v1.8h-1.8v1.62h-1.62v1.62h-1.62v1.8h-1.8v1.62h-1.62v5.04h-1.62v-5.04h-1.8v-1.62h-1.62v-1.8h-1.62v-1.62h-1.62v-1.62h-1.8v-1.8h-1.62v-1.62h-1.62v-1.62h-1.8v-1.8h-1.62v-1.62h-1.62v-1.62h-1.8v-1.62h-1.62v-1.8h-1.62v-1.62h-1.8v-1.62h-1.62v-26.82h-18.54v35.1h1.62v1.62h1.8v1.8h1.62v1.62h1.62v1.62h1.62v1.8h1.98v1.62h1.62v1.62h1.62v1.8h1.8v1.62h1.62v1.62h1.62v1.62h1.62v1.8h1.8v1.62h1.62v1.62h1.62v1.8h1.8v1.62h-1.8v1.62h-1.62v1.8h-1.62v1.62h-1.8v1.62h-1.62v1.62h-1.62v1.8h-1.62v1.62h-1.8v1.62h-1.62v1.8h-1.62v1.62h-1.98v1.62h-1.62v1.8h-1.62v1.62h-1.62v1.62h-1.8v1.8h-1.62v35.1z"/></g></svg>