<svg id="logo" viewBox="0 0 930 270" xmlns="http://www.w3.org/2000/svg"><g id="bentobox"><path d="M22 225c0-1 0-1 0 0zm33-124h0zm12 6zm28 5v-1zm-2 4v-1h-1l1 1zm-44 0v-1 1zm-2 0h-1 1zm0 1v-1h1l-1 1zm41 0l-1-1h1v1zm-55 25l1-2v-1-1h1s0-1 0 0h-2l2-1 1-1-2-1 2-1 1-1 1-1v-1l-1 1v1l-1-1-1 1v-1l2-2 2-1h-1l2-1 2-1h1l2-3-1 1-1 1h-1l-1 1h-1v-1l2-1v-1h-1l1-1 1-1-1 1h-1l1-1v-1h2v-2h1l-1-1c-1 0 0 0 0 0l3-1h-1 2v1l-3 2h1v-1l-1 2-2 3h-1 4l-2 3-2 3v1h-1l1-1h-1 1v-1c-1 0-2 1-2 3s-2 3-3 4l2-1 1-2-2 4h-1l-2 3-2 2zm16-25s0 1 0 0zm-2 4v-1-1h1l-1 2zm59 2l-1-1 1 1zm-67 1h-1 1zm-1 2zm70 3l-1-1-1-2 1 2 1 1zm-24-2c0-1 0-1 0 0zm-42 1h1v-1l-1 1zm0 0v-1 1zm-5 1v-1 1zm0 1h-1v-1h1zm74 1l-1-1 1 1zm-70 1h-1 1zm-8 3h-1l2-1-1 1zm0 1zm-2 2l1-1h1l-2 1zm7 5l1-1-1 1zm-5 2h-1l1-3 1 1-1 2zm-5 5l1-1v-1l2-2 3-1-1 2-2 1h-1v1h-1l-1 1zm3-5s-1 0 0 0zm6 1l-1-1h1v1zm-4 5zm-5 2v-1l2-1-1 1-1 1zm-1 3h-1 1zm88 3v-1 1zm-91 0h1-1zm74 4c0 1 0 0 0 0v-1 1zm-1 0s0 1 0 0v-1 1zm-80 6h-1v-1l1 1zm91 0zm-79 1v-1h1l-1 1zm77 2l1-1v1h-1zm-19 2v-1 1zm-4 3l1-1h1v-1l-1 1-1 1zm-1 1l1-1h-1v1zm2 3h-2 1l1-1h1l-1 1zm-56 0s1 0 0 0zm73 1c0-1 0-1 0 0zm-2 2v-1h1l-1 1zm-76 0h1-1zm-3 3l1-1 1-1h1v-1l-2 2-1 1zm57-2h-1l1-1h1l-1 1zm21 0h-1 1zm-1 1zm-1 1l-1-1h1zm-11 1v-1 1zm-67 0h1v-1l-1 1zm77 0l-1 1v-2l1 1zm-78 0h0c-1 0 0 0 0 0zm-2 2l1-1v-1 1l-1 1zm79-1h-1v-1l1 1zm-26 1l1-1h1-2l-1 1h1zm15 2zm7 0h-1 1zm-55 1l-1 1-1-1h2zm-22 2v-1l1 1h-1zm56 0h-1l1-1v1zm16 0h-1 1zm-28 0h0zm-49 5v-1h1v-2l1-2v3l-2 2zm57-4v1-1zm19 0v0zm-23 1h-2l1-1h1v1zm-49 1l-1-1 1-1v1zm-3 1l1-2-1 2zm48-1l2-1-2 1zm-46 1v-1h1l-1 1zm50 0v-1zm21 0v-1 1zm-11 0h-1 1zm-65 2l1-1-1 1c0 1-1 0 0 0zm4 0l1-1h1l-1 1h-1zm68 0h-1l1-1v1zm-70 0H7h1zm49 1h1v-1h-1v1zm-47-1l-1 1v-1zm39 1v-1h1l-1 1zm28 1h-1l1-1v-1 2zm-29-1h-1 1zm-1 0h-1 1zm28 1v-1 1zm-66 0H8h1zm35 0zm6 1l-1-1h2l-1 1zm14 0h-1v-1l1 1zm-31 0v-1l-1 1h1zm7 0h0zm-31 2v-2l1 1-1 1zm53-1v-1h1l-1 1zm8 1v-1h2l1-1-2 1-1 1zm-23 0v0zm-38 0H8v-1h1zm-4 0h2l-1-1v1H5zm27 0v-1l-1 1h1zm16 0v-1 1zm-12 1v-1 1zm-8 1h-1-1l-1-1c0-1 0 0 0 0h1l2 1zm3-1h-1 1zm26 1h-1l1-1c1-1 0 0 0 0v1zm-22 0l-1-1 1 1zm1 2h-7v-1c0-1 0 0 0 0h3l3-1 3-1h3l-3 1-3 1 1 1zm11-2h-1 1zm7 1l1-1v1h-1zm-11-1l-1 1-1-1h2zm-32 1v-1zm18 0v-1zm-22 2v-1H6l-1-1 1 1 1 1zm1 0v-1-1 2zm32 1l-2-1h3l2-1h5l-3 1h-2l-1 1h-2zm-3-1v-1h1v1h-1zm-2 2h-3v-1h1-1-1l3-1h3l-2 2zm-8-2h-1 1zm36 0h-1 1zm-34 0zm-16 1l-1 1v-1h1zm46 1v-1 1zm-22 2l-2-1h1l2-1-1 2zm20-1c0-1 0-1 0 0zm-11 0h-1 1zm-23 1l1-1-1 1zm2 0l1-1v1zm5 1l1-1-1 1zm0 0h-1 1zm-16 0h-1 1zm14 0h-1 1zm-12 6c0 1 0 1 0 0zm19 1h-1c-1 0 0 0 0 0h1zm-6 2v-1 1zm-5 0h-1v-1h1zm3 0h-1 1zm4-87l1 1-1 1v-1-1zm51 44s0 1 0 0zm23-62v1-1zm-2 60v-1 1zm0 0h1l6-9 5-9-1-1c2-2 3-5 3-8v-9-1h1v-1-1h-1v-1-1l-1-6-3-5h-1c-1-3-4-6-7-8l-3-2-4-2h-4 2l1 1h-3l-3-1s0-1 0 0l1-1h-1-2l3-2 3-3v1l1-1h1l10-13c4-5 5-10 5-16 1 1 2 2 1 4l-1 3 2-5c0-2-1-4-3-5l-2-6-5-5h-1l-4-2-6-1c1 0 1 0 0 0h-1l-1-1c-1 1-2 0-3-1l-3 1h-3v1h-1a64 64 0 00-27 6l-12 6-11 7-1-1-1 3c-1 1-1 0-2-1l-1 3-2 1c-1 2-1 4-3 5s-2 4-2 6h-1l1 3 1 2 2 1v2h3c1-1 1 1 1 2l3 1 2 1 2-1 3 1v-1h3l2-3v-3l1-2 2-2 2-2v1l1-1c0-1 0 0 0 0l-1-1h2v-1l2-1 7-4 8-4a61 61 0 0134-7v1c-1 4-3 7-6 9s-4 6-6 8l-10 10-11 7-2 1-1 1 2-4 1-4v-3-1l1-1h-3l-2-1-7-1v-1h-2v-1l-1 1h-1c0 2-1 2-2 1h-1a6184228 6184228 0 01-4 10 5006 5006 0 00-28 56l-1 4c0 2-1 4 1 6l1-1h2c0-2 1-2 3-2l2-3 3-1v1l2-1 2-1 1-1 1-1 1-1 2-1 1-2v-2l2-2 1-2v-1l4-6 2-6 2-1v-2l1-2 4-2 4-2 6-2c2-1 5-2 6-4h4l3-2v1c1-2 2-2 3-1h1l1-1v1l7-1h8v1h2l1 1c4 1 6 3 7 5l1 9-3 9-4 7-1 1-1 1v2l-1 1-1 1-1 1h-1l-1 2-1 1h-1v1h1v1l-4 2h1l2-1-9 7v1l-4 3h3-1l-1-1a7 7 0 003-1v1s-1 0 0 0v1l-3 1h-1-1 1v-1l-2 1-2 1 1 1h-1l-2 1-2 1v1l1-1h1l-1 1h-1v1c0 1-1 0 0 0v1h-1-3l-1 1v-1l-1 1-2 1-3 1h2l-3 1-2 2h1v1h-2-2v1l-1-1c0-1 0 0 0 0v1h-1 0l-2 2v-1l1-1-2 1-1 1h-1c0 1-2 2-3 1s-3 1-4 1l3 1h2v1h-1 3l2-1 1 1 1-1 1 1 3-2 3-1-1-1 5-2 4-2h3l2-1-2 2h-2l-3 2-2 1-4 2-4 2-5 1-4 2v-1h-1-1l2-1 2-1-2 1h-1l-1-1h-3l-2 1h-4-3v-1l-1 1 1 1h-1v1l-1-1h-1l-1-1v-1l1-1 2-3 1-3 3-2 3-3h-1v-1-1l1-1v-1 1h-1l1-2 1-2h-1-1l2-3 3-2 1-2 1-1h1l3-3 3-3h-1l4-3 4-3-8 3-6 2v1h-1l-1 1-2 1v-1l-3 2-2 2h-1l-2 1-2 2-1 1h-1v1l-2 1 1 1c1 0 0 0 0 0l-4 3-4 3v-1h1l-2 2-2 1 1 1-1 1v-1h-1l1-1 1-2-2 2-2 1v1c0 1 0 1 0 0l-3 3-1 2 1 1-1 1v6h1l1-1v1l1-1v2h1v2h-1l-1 1 1-1v2H9v-1 2h1v-2l1-1 1 1-1 1-1 2h1v-1h1v1l1 1h-2v1h1v1l2 2 3 3v1l2 1h1l1 1h2l1 1v-1h1c1 0 0 0 0 0l1 1 2-1h2l1-1 1 1 11-4 10-5h2v-1l3-1 3-2h1a353 353 0 0114-9h1v-1l1-1h1l2-1v-1l-1 1h-2l2-1h1l1-2 2-1v-1l1 1 6-4 5-5 4-3 3-4zm102-94v-1c0-1 0 0 0 0zm-10 0v-1 1zm7 0l1-1h-1v1zm6 0v-1h-1v1zm-10 0v-1h-1v1zm1 1l1-2-1 2zm5-1zm6 0zm-20 0h1-1zm-6 1l3-1h-1-1l-1 1zm-1 0l1-1h-1-1l1 1zm-10 1h1v-1l-1 1zm11-1v0zm-16 1h1s1 0 0 0h-1zm39 0l-3 1h-3l3-1h3zm-25 1h-1v-1l1 1zm18 0h-1 1s1 0 0 0zm-36 2l-2-1 2-1 1 1-1 1zm21-2zm3 1h1v-1l-1 1zm-5 0h-1v-1h1v1zm1 0h-1l1-1zm15 0l1-1-1 1zm-40 0s1 0 0 0v-1 1c-1 0 0 0 0 0zm19 1v-1-1 2zm-28-1zm31 0h0zm30 0l-1 1v-1h1zm-66 0h0zm35 0zm38 1l1-1h-1zm-23 0v-1l-1 1h1zm15-1l-1 1-1-1h2zm-17 2l-1-1v-1l-1 1h1l1 1zm3-1zm-15 0h-1 1zm6 1v-1h-1c-1 0 0 0 0 0l1 1zm25 0l1-1c1-1 1 0 1 1h-1-1zm-49 0v-1 1zm27-1h1-3 2zm5 1h0zm-10 0c-1 0 0 0 0 0zm4 1l1-1c1 0 0 0 0 0l-1 1zm-22 0h-1l1-1h1l-1 1zm41 0h-1 1zm-49 0h1-1zm5 0h0zm13 0h-1 1zm-7 0zm-3 1v-1 1zm-6 0h-1v-1h1zm-2 0l-1-1 1 1zm13 0v-1h-1v1zm-9 1l1-1 2-1-1 2h-2zm-1 0h-2l1-1h2l-1 1zm13-1h0zm-19 2v-1l2-1v1l-1 1h-1zm-1 0l-1-1 1-1v1c-1 1 0 1 1 1h-1zm53 0l1-1c1 1 0 1-1 1zm-47 0v-1h1l-1 1c-1 0 0 0 0 0zm-2 0h-1 1zm34 2h-1c-1 0 0 0 0 0h-1l2-1v1zm-50-1zm41 1h-3c1-1 2-2 3-1s0 1 0 1zm11 0h-1v-1h1zm9 0h-1v-1l1 1h1-1zm-15 0v-1 1zm-9 1l-1-1v-1l1 1v1zm-6 1h-4l1-1h2l1-1h1c1 0 0 0 0 0h2l-1 2h-1-1zm15-2h-1 1zm-11 2l-1-1 1 1zm-27 1l1-1c1 0 0 0 0 0l-1 1zm24 0v1-1s1 0 0 0zm-43 1h-1l-1-1h1l1 1zm46 1l-5 1-4-2 3-1c2-1 2 0 2 1h2l2 1zm-9 0h-1 1zm-38 1v-1c0-1 0 0 0 0v1zm16 0h-1v-1h1zm25 0h-1 1zm16 0l-1 1v-1h1zm-56 1v-1 1zm6 1l-1-1h1v1zm-3 3v-1h-1v-1h1v2zm-3 0h-1l1-1v1zm2 1v-1 1zm-4 0l1-1c1 0 0 0 0 0l-1 1zm5 2v-1 1zm-2 23zm37 2h-1 1zm-8 1h3-3zm-9 1h4v-1h-2l-2 1zm8 0v-1 1zm10 0l1-1h0l-1 1zm-44 2h-2 2zm-3 1h-1v-1h1zm34 0h-1 1l1-1-1 1zm2 0h-1v-1h1zm-3 0h-1 1zm1 2l1-1v1h-1zm14 1h-1 1zm-54 19h0zm-1 6h0zm0 6h-1 1zm-1 4h-1 1zm70 2c0 1 0 1 0 0zm-72 4v-1c0-1 0-1 0 0v1zm0 0l-1-1 1 1zm0 5v0zm58 5l1-1 1-1-1 1-1 1zm-10 5h-1v-1l1 1zm-38 3h-1 1zm1 1zm12-94h1v2l-2-1h1v-1zm2 14l-2 5-3 4v1l-1 1-8 1-7 1v-1l-2 3-2 4 1 2 1 2 1 1h1v1l-1 1 2 3 4 1-1 1 1 2h-1v1l-1 3-1 3-1 3-1 2v2l-1 1-1 2v2s-1 0 0 0v1l-1 1a58 58 0 01-1 7v1c0 1 0 0 0 0h-1l1 2v1l1 2v1l-1-1 1 2v2l2 2 1 3h1v2l1 1v-1h1l1 1 1 1h-1l1 1a1169694 1169694 0 0014 1 129 129 0 008-1l3-1 3-1 1-1h2l7-2 6-2 1-1h2l1-1 2-1 1-2 4-3 3-4h1c1 0 0 0 0 0v-1l2-2 2-2 1-2v-1l-1-1h-2a303 303 0 00-50 10l-8 1 1-4 1-4 7-16c2-6 4-10 8-14a336 336 0 0029-5v-2l2-1 2-1 4-4c2-1 2-2 3-5h-1-1-2l-1 1h-4l-2 1v-1h-6c-2-1-3 0-5 1v1 1h2v-1 1c0 1 0 0 0 0h1v-1 1l3-1 1 1h1l-2 1h-2 6l-11 2h-11l1-1h1l2-1h-1-1l2-1h3l2-1v1h-1 2v-1h2v-1h-4v1-1l-2 1h-2l1-1h-1-3l1-1v-1h-1l1-1 1 1 1-3 1-2 1-2 2-3 1-2 2-2 3-5 4-6h4l1-1h7l3-1 3-1h4l2-1h4l1-1v-1l-6 1c-2 1-4 0-6-1v1h-1l-2-1-3 1v-1-1l-1 1-1-1 1-1 6 1 6-1h-1-2l3-1h2l3 1h3l1-1h7l1-1c0-1 0 0 0 0h1v-1h4c0-1 0-2 2-1l-1-1c-1 0 0 0 0 0v-1h3l-1-1h-2 3v-1-1h-1c-1 0 0 0 0 0h1l2-1 1 1v-1l1-1h1c1 1 0 0 0 0l1-1v-1h1v-2l-2 1h-3v-1h-1v1l-1 1v-1h-1l-3 1a57 57 0 01-6-1l-3 1v-1h-2v1h-4l-3 1h-12l-3 1v-1c1 0 0 0 0 0l-2 1v1h1l-1 1h-1l1 1h1v-1l1 1 1-1h1l1 1h1l-1-1h3l1-1h1v-1h5v0l1 1v-1 1l1-1 1 1 1-2v1h3v1h-1 1v-1 1l1 1h-2c-1 0 0 0 0 0l4-1h5l-2 1h-2 1v1l2-1 2 1h-3l-4 1 1-1c1 0 0 0 0 0l-1-1h2-2l-1 2h-3l-3 1v-1l-4 1v-1l-3 2-4-1-5 2c-2 1-5-1-6-1l-1 1c0 1 0 0 0 0s-1 0 0 0l-1-1c1 0 0 0 0 0v1h-1l-1 1v-2l2-1v-1l2-1 3-1c0-1 0-1 0 0h-1-2-1c-1-1-1 0-1 1l-1-1-1 1h-2l-1-1h4l1-1v1l1-1h1l2-1 1 1h1v-1h-1-2v-1l-5 2v-1 1h-1v-1h-1-3l-2 1h1l-4 1h-4l3-1 1-1-2 1-2 1v-1h-1l-2 1c-1 1-2 0-3-1 0 0 0 1 0 0l-2 1v-1h-2-7-1v-1 1h-1v-1l-1 2s-1 2-2 1l-1 2-1 2h2l-2 1 1 1v2l-1 1h1v3l1 1v1h-1v1h1v1h-1l1 1-1 2h2l1 1 2 1h2v2h7l-3 5-2 5zm80 0a189 189 0 01-7 20v-1 8l-2 8v-2l-1-1v-4c-1-2 1-2 1-3v-2-2l1-3v-4h1v-3-3s0-1 0 0l1-1h-1v-1l1 1c0 1 0 0 0 0l1-2v-3l1-2 1-3h-1c-1 0 0 0 0 0l2-5 2-4v-1c0-1 0 0 0 0 2 2 2 4 2 6l-2 7zm91-77v-1l-1-1v1l1 1zm-13 3zm9 1l-1-1h1v1zm0 2l-1-1 1 1zm-2 10l-1-1v-1-1l-1-1 1-4 1-3 1 2-1 2v1l1-2 1-1-1 4v3l-1 2zm-9-8l1-1v-1l-1 2zm12-1h-1 1v-1 1zm-3 6v-1 1zm-1 1l-1-1 1 1zm0 3l-1-1v-1l1 1v1zm1 1l-1 1v-1h1zm2 1v-1 1c0 1 0 0 0 0zm-4 4v-3-2l1 2-1 3zm5-3v-1 1zm-2 1l1-1h-1v1zm-7 14l-1-1v-5l1-3h1v-1-1 2 3l-1 3v3zm-70-8h-1 1zm71 3v1-1zm0 2v-1 1zm-3 2v-1 1zm-1 4v-1h1l-1 1zm1 1v-1 1zm-2 3v-2-1l1 1v1l-1 1zm0 2h-1v-1l1 1zm-3 5v-1-1h1v-1 2l-1 1zm0 4l-1-1 1-2 1 1-1 2zm7-1v-1zm-82 1v-1 1zm2 2v-2-1 3zm73 0l-1-1v-1l1 1v1zm-74 4v-3l1-1 1 2-2 2zm73-2l1-1-1 1zm2 0h-1 1zm5 0c0 1 0 1 0 0zm-79 3h-1l1-1v1zm-4 9v-1h-1v-1-2l1-1v-2l1-1v1l-1 2 1 1h-1v2c-1 1 0 0 1 1l-1 1zm6-7h-1v-1l1 1zm68 0h0zm-70 1v-1zm-8 0v-1 1zm77 4v-1l1-1h-1l1-1v-1 3l-1 1zm-71-2l1-2v1l-1 1zm-8 0h-1v-1h1v1zm87 0c0 1 0 0 0 0zm-88 1zm8 1zm4 1h-1zm-7 1h-1 1zm0 3v-1-1l1 1-1 1zm4 2l1-2v-2l-1 2v2zm-4 2h-2l1-3v-2l1 1-1 2 1 1v1zm63-3l1-1h-1zm-60 3h-1 1v-1 1zm-7 0h-1v-1l1 1zm4 1h0zm-1 1l-1-1 1 1zm64 2h-1 1zm-62 3h-1v-1h1zm-3 5h-1v-1h1zm-1 2v-1 1zm-3 0v-1zm6 0h-1 1c1 1 0 0 0 0zm-1 2l-1-1 1 1zm-3 2h-1l1-1v1zm64 0h-1 1zm-67 0zm3 1v-1 1zm0 4v-1h1l-1 1c-1 0 0 0 0 0zm0 1v-1h1l-1 1zm-6 8v-1h-1l1-1c1 0 0 0 0 0h-1l-1-1h1v-1l-1-1v-2 1c-1 1 0 0 0 0h1c0-1 0-1 0 0v1l1 1v-1-1l1 3c1 1 0 2-1 3zm6-4l-1-1c0-1 1 0 0 0l1-1v2zm-1 2v-1c0-1 0 0 0 0v1zm-7 1v-1 1zm2 3h-1 1zm0 1h-1 1zm6 3s-1 0 0 0l-1-1h1v1zm1 4h-1v-1l1 1zm-9 0zm7 2s0 1 0 0zm-10 16h-1 1zm6 8h-1 1zm2 1zm0 1zm-2 1v-1zm-6 0s0-1 0 0zm7 1v-1 1zm-7 0h-1 1zm3 3v-1-1l1 1v-1l-1 2zm-6 2zm-10 0h-1 1zm14 1v-1l-1 1h1zm-8 1s0 1 0 0zm3 0h-1 1zm-2 0zm49 12v-1h-1v1zm-40-80h1v1l-1-1zm0 0v1l-1-1v2l-1 2v2l-2 2v4l-1 5h-1v1l-1 1 1 1-1 4-2 4v3 4h-1v-1l-1 3v2a64 64 0 00-5 21l-1 2h0c-1 0 0 0 0 0l-1 2c-1 1 0 2 1 2v1l1-1h1v1c1 0 0 0 0 0l-1 1 1 1v-1h1c1 0 0 0 0 0 1 0 1 0 0 0l1-1 1 1h1-1l3 1 3-1 1-3c1-1 2 0 3 1v-1h1l-1-1c-1 0 0 0 0 0h2c1 1 0 0 0 0l2-1v-1c0-1 0 0 0 0h-1v-1h1l1 1v1h1v-1c0-1 0 0 0 0h-1l2-1h1v-3l-1-2h1v-1-2l1-3h-1v-1l1 1v-2-2-1-1h1v-2l-1-2 2-8 2-9h1l1-9 2-8 1-1v-2l1-1v-1l1-3 1-3v-2-3h1v-2l1-2 1 6v6l2 4v9l3 16 2 17 2 16c1 5 3 10 6 14l-1 1c-1 0 0 0 0 0l2 2 2 1h1v2l2 1 2 2 2 1h2c6 0 12-3 16-6s8-8 9-13l1-1 1-1 1-3 1-2 5-19 5-20v-1l1-1-1-1c-1-1 0 0 0 0 2-3 2-5 2-7l2-7 2-9 2-11 1-4v-4l1-5 1-5v-2h-1l1-3v-3c2-3 4-6 4-9l3-11v-1l-1-1v4 3l-2 2v3l-1 3-1 2 1-6 1-7 1 1v-3l1-2h-1l2-4 2-7 1-6v1l-1 1 1-2-1-2v2h-1c-1 0 0 0 0 0l1-5 1-6v2l-2 3 1 1-1 1-1 2 1-7 2-7v-1h1v-5l1-4v-2-1l1-5v-5l-1-1-1 4-1 4-1 1v1l-1 1-1 5-1 4-2 4-1 5-1-1v2l-1 1v2l-2 6-2 5a403 403 0 00-6 16v4l-2 3v4h-1v1h-1v3l-1 3v-1l-1 1 1 2-1 3-1 3-1 3-2 3v2l-1 2v3 2l-1 1h-1l1 1v2h-1v3l-1 2-1 2v2h-1l-2 10-2 10-1 5-2 6v1a366 366 0 00-12 38l-3-15-3-15v-9l-1-9-1-2-1-14-1-15v-3l-1-3 1-3-1-2 1-1-1-1 1-1-1-3v-4l-1-1 1-5v-3l-1-3-2-3-4-3-4-3h-2c-1-1-1 1-2 1l-1-1-1-1v1c1 0 0 0 0 0l-2 1h-1v-1h1l-4 1h-4c-2 1-2 2-2 4l-1 5 1 1-2 7-3 6a49 49 0 00-3 12h-1v2 2c-1 0-2 1-1 2-2 1-2 2-2 3v3l-1-1v4l-1 3-1 5v1zm237-73h2l-1-1-1 1zm17 1h1l2-1h-1-1l-1 1zm-7-1zm-7 0h1-1zm10 0h0zm8 1l2-1-2 1zm-40 0h2l-1-1-1 1zm43 0h1v-1l-1 1zm-39 0zm48 0l1-1-1 1c0 1 0 0 0 0zm-54 0s1 0 0 0h-1 1zm47 0s0-1 0 0zm-50 0zm27 3l-1-1h2l-1 1zm-19 0l1-1-1 1zm39 1l-1-1-2-1 2 1 1 1zm-26-1l-1-1h1v1zm3 1l-1-1h-1 1l2-1-1 1v1zm-25 0h-1-1-1-1l1-2 2 1h7l-3 1h-3zm-5 0h-1c-1 0 0 0 0 0h1l1-1v1h-1zm12-1h-1 1zm10 1c0 1 0 0 0 0 1 0 1 0 0 0zm-24 1h-1v-1h1v1zm-26 4v-2l1-1a225 225 0 017-1h5l4-1h8l-7 1-7 2v-1l-1 2-3-1-2 1 1-1v-1l-3 1-1 1h-1zm67-3v-1h-3 2l2 1v-1h1v1h-2zm-4 2l-1-1-2 1-3-1 1-1v-1h3l-1 1h-2v1l5-1 5 1-3 1h-2zm-68 9l-1-1 1-1v1c0 1 0 0 0 0l4-2 3-1-3 1-4 1v-3l1-2 2-1 3 1 2-1h5l3-1h2l2-1h12l5-1h3v1l2-1 2-1v2l2-1 2 1-1 1h-2l1-1-4 1h2l1 1h-1 3l3-2c3 1 6 0 7-1 2 1 3 0 5-1v3h-5l-5 1h1v1h-10l-5 1-5 1h-1l-1-1a95 95 0 00-14 2l1 1v-1l6-1h6l-2 1h-2l-2 1h-4l-2 1-5-1h-5v1l-1 1v-1a26 26 0 01-7 2zm50-11l1-1c1 0 0 0 0 0l-1 1zm10 0v-1zm-5 0l-1-1h2c1-1 0 0 1 1h-2zm-7 0zm-34 1l-1-1v1h1zm24 0l1-1-1 1zm-2 0h0zm40 1h-1l2-1-1 1zm23 0h-1 1zm-132 2c-1 0-1 0 0 0v-1l-2-1v1l-1 1 1-1 2 1zm133 0v-1zm-45 0h-1v-1h1v1zm1 0h1-1zm-98 1l1-1h-1v1zm19 0h0zm55 0zm-76 0h1-1zm-7 1v-1l-1 1h1zm113 0h-1l-1-1h1l1 1zm-6 0h-1 1zm-2 1h-2 2zm-87 0v-1l1 1h-1zm-17 0h0zm19 0v-1 1zm-20 0h-1 1zm30 1h-1v-1h1v1zm-32 0v-1 1zm54 0l1-1h-1v1zm-25 0h-1 1zm-38 0v-1 1zm37 0h-1 1zm-3 1v-1l1 1h-1zm1 0v-1h1v1h-1zm50 0h0zm-57 1v-1 1zm35 0h0c-1 0 0 0 0 0zm-40 0c-1 0-1 0 0 0zm4 0zm2 2l-1-1h-1l1-1 1 1v1zm-7 0h-2v-1h3l-1 1zm-4 0h-1l2-1v1h-1zm21 0h-1v-1h1zm-6 0zm3 1h-2v-1h3l-1 1zm48-1v0zm-68 1c0-1 0-1 0 0zm-2 0h-1c0-1 0-1 0 0h1zm94 0h1-1zm-99 1l-1-1h1v1zm72 0v-1 1zm-70 0v-1c1-1 0 0 0 0v1zm-1 0h-1v-1l1 1zm5 0l1-1v1h-1zm21 0h-1 1zm27 1v-1 1zm-16 5v-2l1-1v2l-1 1zm-10-1l-2-1h2v1zm-4 20h-1v-5l1-3 1-2v-1 1l2-4 1-4v-1l1-2v0h1v4l-1 1v2h-1v1l-1 2v2l-2 4-1 5zm1-19h-1zm2 0v-1 1zm2 1l1-1-1-1v1 1zm87-1h1-1zm-1-1v0zm-96 1h0zm-5 1h-1l1-1h2l-2 1zm14 0h1l-1-1v1zm-17 0v-1h1l-1 1zm27 0c0-1 0-1 0 0zm69 0zm-74 3v-2-1 1 2zm-8-1v-1zm7 5v1l-1 1v1l-1-1 1-1v-2l1-2h2l-1 2-1 1zm-5-1v-1 1zm-45 0v-1 1zm43 6v-1c0-1 0 0 0 0v1zm-3 7v-1-1l1 1-1 1zm9 1l1-1-1 1zm-13 1c0 1 0 1 0 0zm12 4l1-3v2l-1 1zm-13 5h1v-1h-1v1c0 1 0 0 0 0zm9 14l1-7 3-7-1 4-1 5-1 3-1 2zm-16 6h1v-1l1-2-1-2 2-3 2-3v-2 0-1l1-1h1v-2l1-2-1 1-1 1v-1-1l-1 2-1 1 1 1v1l-1 2-1 2v1c0 1 0 0 0 0h-1-1v5l-1 4zm10-18l-1-1 1 1zm-6 2zm-1 5v-1c0-1 0 0 0 0v1zm2 1v-1-1 1h-1l1 1zm9 6v-1 1zm-1 6l-1-1c-1 0 0 0 0 0l3-6v3l-2 4zm0-4v-1-1l1 1-1 1zm-12 6v-1l1-1v1l-1 1zm-1 1l-1 1v-2l1 1zm-4 13l1-4 2-4-1 5-2 4zm0-5h-1 1zm-3 12v-1l1-2v2l-1 1zm-2 6l1-2-1-1 1-1 1-1v1l-1 2v1l-1 1zm0 1v-1zm-4 9h2v-2-1 1h-1v1l-1 1zm3 0v-2h1v1l-1 1zm-2 2v-1l-1 1h1zm0 7v-1-1-1h1v-2l1-2-1 4-1 3zm-2 2l-1-1h1v1zm13 12h1l-1-1v1zm-2 2h-1 1v-1 1zm-3 8v-1c0-1 0 0 0 0v1zm-8 6l-1-1h1zm34-146h-1c-1 0 0 0 0 0 0-1 0-1 0 0h1zm2 23h1l-1 1v-1zm10 3l-1 2v-3h1zm-1 2l-1 2v-1-1zm-30 43v2l-2 2 1-2zm-5 14v0c0-1 0 0 0 0zm-5 17v0zm0-101v1h-1l1-1zm24 3v1l-1-1h1zm-11 1h3l1 1-2 1-1 1-1-1v-2zm-20 146v-1-2l1-1h1v-1-1h2l1-2 2-1 2-2v-2h1c1 0 0 0 0 0l2-2 1-2 1-4 2-3h1l1-4 1-3h1v1a23380 23380 0 0129-89 1056 1056 0 0111-22 4737 4737 0 0056-1l-4 1 1 1c1 0 0 0 0 0l-3 1-3 1v1l-2 1v1h-2l-6 4 10-2 8-1v-1l3-1 3-1 5-1 4-1 3-1h3l2-1h2l8-2c3 0 6-2 7-3v-1l1-1h2l-1-1h3l1-1 1-2-2-1v-1-1-1l-3-1v-1l-1-2c-2 1-4 0-5-2h-2l1 1h1l-3 1h-4l-1-1h-17l-5 1-6-1c-2-1-3 0-5 1l-4-1c-2-1-2 0-3 1a1534 1534 0 00-43 0l-1-3h-5l-1-2-2-1h-3l-2-1h-2-1-1l-2 7-3 7a569 569 0 00-28 3h-1-3-1v1h-1-1l1-1c0-1 0 0 0 0h-1c-1 0 0 0 0 0v1c1 0 0 0 0 0h-1l-1-1-1 1-1-1v1h-1-5l-1 1v-1h-4c-2-1-3 0-4 1v-1 1h-2v-1h-4l-4-1v-1l-1 1v1h-1l-1-1v2l1 3h-4l1 1v1l-1 1c-1 0 0-1 0 0l2 3v3l1 1v2h1l1 4 3 2h10l1-1 6-1 6-2a574 574 0 0135-4 50 50 0 01-3 8c0-1 0 0 0 0l-1 4-2 4h-1l-1 3v2l-2 3-1 3h1l-1 1v1l2-2v-2l1 1 1-1-1-1c0-1 0 0 0 0l1-1v-1 1-2h1v-3l1-1v1l-1 1h1l-2 8c-1 3-2 5-1 7h-1l-1 3-2 3 1 1a153 153 0 01-3 8l-2 2 1-3 1-2-1 2-1 2v1h-1v-1-1l-1 1v1c-1 0-2 1-2 3v5c-1 1-2 1-2 3l-3 12a125 125 0 01-4 13v1l1-3h1l1-2-1 6-2 5v1l-1 2v3h-1l-1 1v1h-1l-2 9-2 9-1 1h1l-2 9 1 10 2-3 2-3 1 1zM425 78h-1 1zm9 1h-1 1c1 1 1 0 1-1h1c-1 1-1 2-2 1zm-7-1l-2 1h1l1-1zm9 1v-1 1zm1 0v-1 1zm-5 0l-1 1 1-1c1 0 0 0 0 0zm-15 1l1-1-1 1zm9 2l-1-2h5-1l-1 1-2 1zm-3-2l-1-1 1 1zm0 1v-1 1zm-6 1l1-1c1 0 0 0 0 0h-1v1zm3 0v-1 1c-1 0 0 0 0 0zm-6 0h1-1zm-2 2l1-2-1 1h-1 1v1zm7-1v-1zm-1 0h-1 1zm-1 0h-1 1zm29 0h-1 1zm-30 1h-1v-1l1 1zm-5 1l1-1h-1v1zm-1 0v-1h-1l1 1zm9 1l3-2-3 2zm-10-1s1 0 0 0zm-2 1h1l-1-1v1zm12 0h-1 1zm-8 6v-1h0l-2 1 3-3 3-3 1 1h1c0 1-1 2-3 2s-2 1-2 3zm-6-5zm-1 1h0zm-1 1l1-1-1 1c0 1 0 0 0 0zm-1 1v-1 1zm4 0l1-1-1 1zm3 3h-1v-1h1v1zm34 0h-1 1zm-42 1l1-1h0l-1 1zm6 0v-1 1zm39 1c0 1 0 1 0 0zm-46 1h-1 1v-1 1zm57 1v-1 1zm-58 0h-1l1-1v1zm50 5l-2-2 1-3 1 2v3zm-57-4h0zm5 0l-1 1v-1h1zm-2 1l-1-1h1v1zm-9 12l1-2 1-2 1-1v1h-1l2-4 3-3h2l1-1-1 2-2 2h-1v3h-1-1 1v0l-1 1-1 1-2 1-1 2zm59-6l-1-3-1-3 2 3v3zm2-3c1 0 1 0 0 0zm-51 1h0zm51 0v0zm8 22l-1-3v-4-4l-1-5v-2-3c2 3 2 7 2 10v11zm4-20l1-1-1 1c0 1 1 0 0 0zm-11 0v-1 1zm3 4l-1-2 1-1v3zm5-3c0 1 0 1 0 0zm-64 6l-1 1v-2l1-1 2-1 1-2-1 2v2l-2 1zm-3-4v-1 1c0 1-1 0 0 0zm60 3l1-2v-2 2zm12-3c0 1 0 1 0 0zm-3 1c0 1 0 1 0 0zm-72 1l-1 1 1-1zm-2 3l1-1h-1v1zm-2 0h-1zm8 1v-1 1zm61 2l-1-1v-1 1l1 1zm-71 2l-1-1 1 1zm-1 2v-1c0-1 0 0 0 0v1zm72 0v-1 1zm0 7l1-3-1-3v6zm-1-4l-1-1 1 1zm-66 0v-1 1zm66 0l-1 1v-1h1zm-72 5l1-1c1 1 0 1-1 1zm73 1l1-1h-1v1zm4 1h-1 1zm-1 2v-1 1zm-62 1v0zm57 4v-1 1zm2 2v-1 1zm-3 9c-1 0-1 0 0 0v-1 1zm-65 53zm3 2h1c1 0 0 0 0 0h-1zm2 1v-1 1zm27 1h-1 1zm-19-102v0zm53 4v5l1 5 1-2v-2-2-1l1 3 1 4v8l-1 7v7l-1 2v3l-1-1v-1l1-7v-8l-1 3v-1-4-4l-1-5 1 3v3l-1-3-1-3 1-4h-1v-1-4h1v0zm-38-15h-1l-5 5-5 6-2 2-2 2 2-3 1-4 1 2-1 1c1-1 2-2 1-3l1-1 1-1 1 1v-2h1l1-1 1-2v2l2-2 3-2zm-14 4l-1 1v-1h1zm64 15v0zm0 0l1-1-1-1v1l-1-2v-2 1-1c1-1 1-1 0 0v-5l-2-6v3l1 3v-1 2c0 1 0 0 0 0h1l-1 1h-1l-5-11c-2-4-4-7-7-9h2v1l5 5 3 6h1l1 1v-1-1c-2-4-4-8-8-11l-6-2-5-3v1l-5-1 1-1h-5l-3 1-4-1c-2 0-2 2-3 3v-1-1l-1 1h-1v3h-3 1c1 0 0 0 0 0v-1-1l-2 2-2 2v1l-2 2-2 2 2-2 1-2-1 1-2 1 1-1v-1l-2 3-3 2v-1l-2 2-2 3-1 1-2 1v-1l-2 1-1 2v1c1-1 0 0-1-1l-4 6-4 5-1 1-1 1h2v2h-1-1l-1 3h-1a733 733 0 01-10 24l-1 6 2-2 1-3h-1l2-3 2-4 2-4c1-2 1-1 3-2v-2l2-2c1-1 2-1 2-3h1l1-2 1-2 1-2v2l-1 2h-1v1l3-2 2-3-1 3-1 3 2-3 3-3v1l4-6 4-1 2-3h-1-1l1-1 1 1v-1-1h2l3-3 3-1 2-2h1l1-1 2-1 7-4c2-2 5-3 8-3l1 1h1v1h2l5 10v2l1 1h-1l1 1v6 18l-2 14v1h-1l-2 7-2 7h-1l-4 9-6 8-6 8c-2 3-5 4-8 6h-1l-6 4c-2 1-6 2-9 1l-2-3-2-6-1-6v-8l1-6 2-7 4-6 4-4h2l1 1 2-1 1-2 1-1 1-1v-1l3-3v-4l-4-2h-9l-4-1h-5l-5 1-1 2-1 1 2-1 1 1-2 4-4 5v-1l-1 1-1 1h-1-1l-4 15v15l1 2v3l1 3c1 1 0 2-1 3l4 7 5 6h-1l6 4a68 68 0 006 2h1l2 1h2c0 1 0 1 0 0h11l8-3 2-1 1-1 2-1 2-1 1-1c1 0 0 0 0 0l2-2 2-1 1-1v-1l7-7 6-7 4-7 4-7 5-12 3-13 1-3v-2-1-2a55 55 0 000-23v0zm99-35v-1 1zm1 0c0 1 0 1 0 0zm3 2h-1 1zm-23 3s0 1 0 0h-1 1zm1 2l2-1v1h1v-1-1l-2 1-1 1zm9-1h-1v-1l1 1zm-3 0zm1 0h1-1zm-18 1l1-1-1 1zm10 1l1-1h-1v1zm-15 0h0zm3 1h-1-1 1v-1l1 1zm40 0h-1 1zm-39 1v-1h1-1v1zm-2 0h-1l1-1zm-4 0h1-1zm-3 1l2-1h-1l-1 1zm0 0v-1 1zm-1 0h-1 1zm1 1v-1h1v1h-1zm0 0h-1 1zm50 3v-1-2l1 1v2h-1zm-58-1h-1v-1l1 1zm58 2v-1 1zm1 0v1-1zm-2 1v-1zm2 1v-1 1zm-46 6zm3 1zm0 2l-1-1h1v1zm0 2h-1l1-1c1 0 0 0 0 0v1zm0 2h-1v-1h1zm37 4l1-1v-1h-1v2zm-40 1v-1 1zm1 1v-1 1zm37 1v-1h-1v1zm-1 0zm-1 1h0zm-1 1l1-1h-1v1zm-55 0l1-1v1h-1zm15 1v-1 1zm39 0h1v-1h-1v1zm-52 0h0zm18 2l2-1-1 1h-1zm-1 1c0-1 0-1 0 0zm7 0zm-9 1l1-1-1 1zm-6 1l1-1c1 0 0 0 0 0v1h-1zm5 1v-1 1zm7 0v-1h1l-1 1zm-4 1v-1h1l-1 1zm-5 2h-1c0-2 1-2 2-2l3-1-2 1-2 1v1zm-5-1l1-1h-1v1zm-11-1c0 1 0 1 0 0zm2 1v-1 1zm-9 1l-1-1h1v1zm-3 0v-1l1 1h-1zm-3 0v-1 1zm21 2l-1-1h1v1zm-20 0l1-1-1 1zm12 1h-1v-1l1 1zm-4 4zm-1 66l-4-1v-1-1l15-15h-1l-2 1 1-2 1-3 1-2h2-1l1-2 1-1-1 1-2 1 2-3 2-3h-1l4-3 3-3-9 2c-3 0-6 2-9 4h-1-1l-4 2-2 2-3 1-1 2-1 1 1-2v-2l1-1v-1l3-3 3-3 2-4v-2h1l1-1v-2l2-1 1-2 1 1 4-4c2-1 2-3 5-3 0-1 0-2 2-2h3v-1-1l9-3 10-2 10-1 10 2 1 2 1 3a42 42 0 01-7 25c-3 3-5 6-9 8l-9 8-11 7a192 192 0 01-15 6l-5 1-5 1zm-7-60l1-1v1zm0 1h-1 1c1 1 0 0 0 0zm2 2h-1v-1h1zm-2 0h-1l1-1v1zm2 0v0zm-1 2l-1 1 1-1zm-2 4v-2l1-1v1l-1 2zm-7-2v-1 1zm10 4h-1-1l1-1 1-2h1v-1-1l1 2-1 2h-1zm4 0h-2l1-1c1 0 0 0 0 0l1 1zm-11 20l1-3 2-3 2-4 2-4-1-1h1l3-3 2-3 1 1 1 1h-1c1 1 0 2-1 3l-2 3-2 1-2 2h2l1-1-3 5-3 4 1-4-2 3-2 3zm3-20h-1 1zm4 4v-1l1-1 1-1v2l-2 1zm-4 3v-1-1-1l1-1 1-1c0-1 0 0 0 0v1 2l-1 1v1h-1c0 1 0 0 0 0zm3-1v-1c0-1 0 0 0 0v1zm4 2l-1-1 1 1zm-9 1l2-1v1h-1-1zm1 1l1-1c1 1 0 1-1 1zm-1 1l-1-1h1v1zm0 1h-2 1l1-1zm-5 4h-1l1-1c0-1 0 0 0 0v1zm1 1h-1v-1h1zm3 1c0-1 0-1 0 0zm4 0h0zm23 0h0c-1 0 0 0 0 0zm-24 1h-1l1-1v1zm-7 1zm7 1v-1zm-5 2v-1 1zm-7 0l-1-1 1 1zm7 0l-1 1v-1h1zm-1 0h-1 1zm5 0s1 0 0 0zm-1 1v-1h1v1h-1zm-7 0zm-8 0v1-1zm10 2l1-1v-1 2h-1zm-8 0zm12 1v-1zm-9 1v-1 1zm80 6h0zm-6 8h-1 1zm-11 8h0zm-61 1v-1zm58 2v-1l1-1v1l-1 1zm-3 2l1-1v1h-1zm-29-89v1c-1 0-1 0 0 0v-1zm47 75zm-35-66c-1 1-1 2-2 1l-4 1 1-1v-2h2l2-1-1 1-1 1h3zm10-15h-1v-1l1 1zm0 0v-1l1-3v-3h1c0-3-2-5-4-7s-5-2-8-3v1h-1l-1-1v1l-1 1v2l-3 7-4 6v1h-1v1c0 1 0 0 0 0v1l-1 1-1 1v1l-3 4-3 5v-1-1h-1v-1l1-7 3-6v-1c1-1 0 0 0 0l-6 7-5 8 1 1v1h1-1-1l1 1v1h1v-1l1 2v2l1-1c0-1 0 0 0 0h1c1 0 0 0 0 0l-1 1h-1v2h-1l-1 1 1 1-3 4-3 3h1l-6 10-7 10v3h-2v3l-2 1 1 1-1 1 1 1-1 3 1 1h2v2l2-1v-1l1-2v2h2l-1 2 1 1v-2h1l1-1c0-1 0 0 0 0h1l-1 1v1l1-1c0-1 0 0 0 0l1 1 1 1 1-2 1-1v-2l2-1 1-1v1l-1 2v1c-2 1-2 2-2 4l-4 2-2 4h-1v2l-1 2v-1l-1 4c0 2-1 1-2 1v2l2 2-1 1h1v-1h1v1l-1 1 1 1v1l1-1v2l2 1v1l1-1-1 2 3 3 3 2c2 3 5 5 8 6l12 1h1l1-1 6-1 6-2 7-3 7-4 9-6 8-7v-1h1v-1h1l2-3 2-3-2 2-3 3-3 3-3 2-4 3-1 1 10-9 9-9a5 5 0 002-3l-1 1-1 1 1-2 2-2v-1-1h1c0 3-1 5-3 7l-3 6 7-11 4-12h-1a32 32 0 00-3-25c-2-4-5-7-8-9l-11-6c8-4 14-10 20-16h1v-1l1-1-1 1h-1l1-1 2-1 2-5v-5l1-5-2-4 1 2-2 1-1-1v-1h1v-1c0-1-1 0 0 0v-1h-1v-1l1 1-2-2v-1l-1-1-1-2-2-2-1 1v-1l-2-2-2-1v1l-5-2 1 1c1 0 0 0 0 0h-2l-3-1h2v-1h-1a20 20 0 01-8 1h-4l-8 1-8 2s0-1 0 0l-1-1c-1 1-2 2-4 1l-3 2-4 1-3 1-4 2c-3 0-6 2-9 4l-8 4-1 1v1c-3 0-4 2-6 3l-5 4c0 3 0 6 2 8l5 7h1l1-1v-1l4-4 5-4 1-2 2-1 1-1h1v-1l1-1v1c1-2 3-3 5-3s3-2 5-3v1l5-3 4-2h-1v1l2-1 2-1v1h1v-1h1v-1h2l1-1h1-1v1l3-1v-2h1v1l1-1h1l-1 1c-1 1 0 0 0 0l1-1 1-1v1c-1 0 0 0 0 0h1l1-1c0-1 0 0 0 0v1l1-1v-1h3v1l2-1 2-1v1c0 1-1 0 0 0l1-2h5v1l-1 1h-1l-2 1 5-1c2-1 3 0 4 1v-1c0-1 0 0 0 0v1h2l3 1 1 3-1 4-2 4-1 1v1l-2 2-2 2-3 3-3 2v1h-1v1l-6 4-6 4-3 2-3 2-1-1-1 1h1l-2 1h-2l1-1v-1l-1 1v2l-2 1-1 1-1 1h-1l2-2 2-2 1-3v1-1h-1c1-1 3-3 3-5l2-1v-1l1-1h1zm125-38v-1h-1v1zm-1 0h-1zm8 2v-1h1l-1 1s0-1 0 0zm-7 0h-1l1-1h1l-1 1zm-5 0h-1s0-1 0 0l1-1v1c0 1 0 0 0 0zm22 0v-1 1zm-19 1l1-1v1h-1zm18 0h-1c-1 0 0 0 0 0v-1l1 1zm-24 1h-1l1-1v1zm24 0v-1zm-27 0h-1zm3 1l1-1-1 1zm-1-1c0 1 0 1 0 0zm0 1zm-4 1h0zm4 0h-1 1zm-2 1l1-1-1 1zm-2 0v-1 1zm2 2l-1-1c0-1 0 0 0 0l1-1h1l-1 1v1zm-4-1zm2 1l1-1-1 1zm42 2l-2-2 2 2zm-42-1h-1l1-1v1c0 1 0 0 0 0zm33 9l-1-1v-1l1 1 1 1h-1c-1 0 0 0 0 0zm-42-5l1-1 1-1-2 2zm54-1h-1v-1l1 1zm-58 2h-1zm-1 1h1l-1-1zm1 5l2-2 2-2h1v-1l-2 3-3 2zm48-2l-1-1 1 1zm-3 1h-1zm-49 0v0zm-7 5l1-1h-1v1zm-1 1l1-1c0-1 0 0 0 0h-1v1zm77-1l-1 1v-1h1zm0 3v-1 1zm-16 0h-1 1zm1 1l-1-1 1 1zm-1 1c0 1 0 1 0 0zm-66 1v-1l-1 1zm-2 0v-1 1zm69 0l-1-1 1 1zm-72 6c1 0 2-1 2-3s1-2 2-2v-1l-2 3-2 3zm0-3l2-1 1-2-2 1-1 2zm0 0zm-9 16c2 0 3-1 3-3l1-4 3-4 2-4a52 52 0 00-6 9h1l-2 2v3l-1 1h-1zm82-13v-1-1 2zm-59 0v-1h1v1h-1zm-9 1v-1 1zm8 0v-1c-1 0-1 0 0 0v1zm-6 3v-1l1 1h-1zm77 1l-1-1 1 1zm-11 0v-1 1zm-71 1v-1 1zm-6 0zm4 1zm-7 2l1-2-1 2zm6 0v-1c0-1 0 0 0 0v1zm-1 1v-1 1zm1 2l1-1v-2l-1 2v1zm75-1h-1v-1h1zm-1 0v0zm0 3v-1c0-1 0 0 0 0v1zm-83 3l1 1v-1c1 0 0-1 0 0l1-2v-1h-1v2l-1 1s1 0 0 0zm93-2zm0 2v-1 1zm-81 5v-2l2-3-1 2-1 3zm75-2v-1zm-89 0v-1 1zm19 0v-1l-1 1h1zm-1 1v-1 1zm-18 0zm14 1h-1v-1l1 1zm10 0h2-1-1c-1 0 0 0 0 0zm-24 0zm14 1v-1 1zm72 15l-1-1 1-1v-1-1-1-4-3l1-3v1l1 2 1 1v1l-1-1c0-1 0 0 0 0v1l1 1h-1l-1-1 1 1v2c0-1 0 0 0 0l-1 4-1 3zm-88-14v-1 1zm14 3v-2-2l1 1-1 1h1v1l-1 1zm1-3s0 1 0 0c0 0 1 0 0 0zm75 1v-1 1zm-85 2h1l-1-1v1zm84 0l1-1h-1v1zm-75 2v-2 2zm77 13v-3l1-3 1-3v-2l2-2v2l-1 1v2l-1 4-2 4zm-92-12v-1 1zm85-1h1c1 0 0 0 0 0h-1zm0 1zm4 3l-1-2 1 1v1zm1-1zm-5 1zm-84 1h-1v-1h1v1zm87 0v-1zm0 2v-1l-1-1h1v2zm14 3l1-1v-2h-1l-1 2c-1 1 0 1 1 1zm-18-2h1l-1-1v1zm4 0zm-1 1v-1 1zm2 1h-1v-2l1 2zm0 1h-1l1-1v1c0 1 0 0 0 0zm0 2v-1 1c0 1 0 0 0 0zm-3 0zm-1 0s0 1 0 0zm3 1h0zm4 3l-1-1 1-1v-2l1 1v1l-1 1v1zm-5-3v-1h-1v1zm-1 1c0 1 0 1 0 0-1 0 0 0 0 0zm1 1v-1 1zm11 0c0-1 0-1 0 0zm-15 2v-1-1l1 1c0 1 0 0 0 0l-1 1zm-86 1h-1v-1l1 1zm95 0l-1-1h1v1zm-94 1v-1c0-1 0 0 0 0v1zm5 0v-1s1 0 0 0v1zm88 1v-1-1 1 1zm-10 0c0-1 0-1 0 0zm-5 11c2-4 3-7 3-11v1l-1 1v4l-1 3h-1v0l-1-1v2l1 1zm21-8l1-2v-1l-1 3zm-101-3h-1zm1 2v-1c1 0 0 0 0 0 1 0 0 0 0 0v1zm85 1v-1h-1l1 1zm2 0v-1 1zm-5 0h-1l1-1v1c0 1-1 0 0 0zm-83 2v-1-1l-1 1 1 1zm85-1v-1 1c0 1 0 0 0 0zm13 1h0zm-13 1l-1-1 1 1zm14 2l1-1v-2 1l-1 2zm-1-2zm-13 0l-1 1v-1h1zm2 1v-1c0-1 0 0 0 0v1c0 1 0 0 0 0zm-88 0l1-1c0-1 0 0 0 0h-1v1zm81 2l1-1h-1v-1 2zm4-1h-1 1zm2 1v-1 1zm-3 2h-1l1-1v1zm-42 2l2-1h-2v1zm-38 0v-1 1zm74-1c1 0 1 0 0 0zm-73 1zm89 1v-1 1zm-88 1h1l-1-1-1-1 1 1c1 0 0 0 0 0zm79 0v-1 1c0 1 0 0 0 0zm-1 5v-2-3 2h-1v2c-1 1 0 1 1 1zm-75-4zm71 1h-1v-1l1 1zm-3 0c0 1 0 1 0 0-1 0-1 0 0 0v-1 1zm20 0v-1h-1v1zm-23 0h0zm5 1l1 1v1h-1zm-68 1l-1-1v-1l1 1 1 1h-1zm66-1zm3 0s-1 0 0 0zm-72 0zm69 2l-2-1 1-1v1c-1 1 0 1 1 1zm0-1c-1 1-1 0 0 0zm1 1v-1l1 1h-1zm-1 3l1-2 1-1v2l-2 1zm-66-2v-1h-1c-1 0 0 0 0 0l1 1zm64-1zm7 2l-1-1v-1l1 1v1zm-30-1l-1 1v-1l1-1v1zm38 2l1-1v-2l-1 1v2zm-12-2h-1v-1h1zm-1 1v-1 1zm-4 0v-1 1zm2 0h-1v-1h1zm6 1v-1s-1 0 0 0c0-1 0 0 0 0v1zm-27 2l2-1 2-2-3 1-1 2zm23-2h-1 1zm-3 0h-1v-1h1zm7 2v-1-1 2zm-11-1v-1 1zm2 0zm0 1v-1h1l-1 1zm4-1zm1 0zm9 1l-1-1 1 1zm1 1v-1 1zm-47 0v-1 1zm11 1v-1h1l-1-1v2zm19 0l1-2-1 2zm15 2h-1l1-1 1-2v1 1l-1 1c-1 0 0 0 0 0zm-52-2h-2v-1h1l1 1zm15 0zm26 0c0 1 0 1 0 0zm-30 2h-1v-1h1zm-7 0h-1 1zm-25 1l-1-1 1 1c0 1 0 0 0 0zm54 0v-1 1zm16 5v-1h-1l1-2 2-2h1l-1 1-1 1-1 3zm-16-4h-1zm-48 0h-1 1zm63 4h0c-1 0 0 0 0 0zm0 1zm-70 1l1-1-1 1zm8 0l-1 1v-1l1-1v1zm60 0h1l-1 1zm-67 2v-1 1zm66 0v-1 1zm-65 3v-2h-1v1l1 1zm-1-2h-1 1zm66 1zm-3 2v-1 1zm-63 1h1v-1l-1 1zm63 0h-1 1zm-59 10l-1-3 1 3zm1 1v-1 1zm7 8v-1zm29 1v-1 1zm-27 0h-1v-1h1zm2 0h-1 1zm-1 3h1l-1-1zm13 0h-1v-1l1 1zm-2 1h-1v-1h1zm-8-1zm34-154l1 1h-1v-1zm-9 150v-1 1zm-22-112v1h-1v-1h1zm-22 11v1-1zm82 31zm-75 40l1 3-1-3zm61 5s0 1 0 0zm-1 1h0zm1 0l-1 1 1-1zm-35 29l-1-1h1v1zm-32-33v-1 1zm52-121v0zm24 18l1 1v1h-1v-1 2h1l1 3 1 2 1 1v3l1 2v1l-1-1v-1a77 77 0 010 4v-1 4l1 2h-1v3l1 3-1 4 1 1-1 1v2h1c1 0 0 0 0 0v1l-1-1v11h-1v2c0 1 0 0 0 0l-2 8-3 8 1-1 1-1-1 2-1 2h1l1-2s1 0 0 0v1l1-2 1-2v-1c0-1 0 0 0 0v-1-1l1-1v-1h1v0h1v3l-1 3v1c0 1 0 1 0 0v3l-1 2c2-1 2-3 2-5l2-5v4l-1 4v1l-3 5-2 5-2 5-3 5v2l-1-1v-1 1h-1v-1-1-1l2-3 2-4v1l1-2 1-3h-1l2-3-1-2 1-1v1l1-2v-1-2l1-1v-1l-1 2-1 2-1 2-1 1v-1-1h1v-1h-1l-1 1v2l-1 1-2 5c-1 2 0 2 1 4l-1 1v-1l-1-2v2l-1 1v2l-1 1v-2l1-3-1 1v1l-1-1v-1l-1 3v2h-1l1-1v-2h-1v2h-1v2l-1 2-1 2-1 2-1-1-1 2v1l-1 2v1l-1 1-1 2h-1v-1l-2 4-3 3v-1l-3 2-2 2-1 1-1 2v-1l-3 3-3 3v-1c1 0 0 0 0 0l-6 4c-3 1-4 2-7 1l-1-2-1-2v-1l-2-7-1-9h4l5-1c2 0 4 0 6-2h1v-1l2-2h3l1-1h1v-1l4-4c1-2 3-2 5-3v-2l1 1 5-7-2 1h-5l-5 2h-2l-3 2c-1 0-2 2-3 1l1-1 2-1-1-1h-2l-5 2-5 2 1-1 1-1-2 1h-2l-2-1v1h-1v-4-3l1-2 1-2 3-10 5-8c1-1 1-2 3-2l3-1 3-2 2-3-4-2-4-2v1l-1-1h-4l-4-1h-1c-1 0 0 0 0 0h-1v1h-1-1v-1 1h-2l-1 1h-4l-1 1v1l-1-1v1l-1 1-2 1 2-3 2-4h-1l1-1 1-1v-1s-1 0 0 0l1-3 1-2h1v-2h1l7-11c2-4 6-7 10-11l13-10c4-3 11-5 18-5s0 0 1 1v-1h1v1h1v1c1-1 2 0 3 1l2 2h1l-1 1h-1v-1 3h0v-1c-1-1 0 0 0 0l2 1zm-9 86l-1 1-1 1v-1l1-2 1 1zM642 74v1h-1l1-1zm0 0l-2 1v1h-1v1l-1-1v1l-1 1h-1v1l-1-1-3 3-2 2h-1l-6 4-6 6-3 2-2 1-1 3c-1 1-2 2-1 3v-1h1v-2l1-1h1l1-1v-1l3-1 1-2 2-1 1-2 1-1h1l1-1 2-1 1-1 3-1-2 3h-3l1 1c1 0 0 0 0 0l-3 2-2 2-3 4-4 5c1 1 1 0 2-1l2-2v-1-1l1 1v-1l4-4-1 1v1l2-2 1-2h1l1-2h2l-3 3-3 4 2-1 2-2v1l-7 7c-3 3-5 6-6 10h-1v1h-1v2l-1-1v2l-3 5a168 168 0 00-6 15v-3-2 2l-1 1-1 4-2 4 1-3 1-3-1-1v-1l-1 2-1 2 1 1h-1l-1 3-1 3-1-2 1-2h-1 1l1-1v-2-1l-2 1v1c0 1 1 0 0 0v-1l-1 1 1-5 1-5-1 1c0 1 0 0 0 0l-1-1 1-1v-2l-1 3-1 4v-1h1v1l-1 3-2 2v-1-1l-1 2c-1 1 0 1 1 1l-2 2v2l-1 3-1 1 1 1c0 1 0 0 0 0v-2l1 1v-1-1l1-2 2-1v-1h1l-1 1-1 2v1l1 1-1 2-2 2v-1h-1v-1l-1 1 1 1h-1v3l-1 3v1h1l-1 1h1a134 134 0 011 7h-1v1h1v-1c0-1 0 0 0 0l1 2 1 3h-1l3 2 1 3v1h1l1 1v2c0 1 0 1 0 0v-1c2 1 3 3 3 5h-1v4l-1 4h1v-1 2c0 1 0 0 0 0l1-1v-1 2 1l-1 1v5l1-2v-2l1 3 1 4h-1v1l1-1-1 4v2l1-2 1 4-1-1c0-1 0 0 0 0v2l1 2 1 2v1s1 0 0 0v1h2v2l2 1h-1v-1l1 1 5 4v1l3 1v-1l1 1h1l1 1-1 1 1-1v-1 2l2-1 2 1h-1 7l1-1v2l1-1h3l-1-1c-1 0 0 0 0 0l1-1 2-1v2h-1l2-1 1-1v1h-1l2-1 1-1 3-1h2l-1-1c-1 0 0 0 0 0h2l1-2h2l1-1 1-2v1h1l2-2 3-3h-1l2-1 1-1v-2h2v-1-1l1 1v-1-1h1l6-9 7-10-1-1c-1-1 0 0 0 0l2-1 1-1v-1h-1l1 1h-1-1l1 1h-1-1c-1 0 0 0 0 0l2-3 1-2 2-3 1-3v2 1c2-1 3-3 2-5l1 1c0 1 0 0 0 0v-1l1-2 1-1-1-2v-1l2-3c1-1 0-2 2-2v-1-3l2-2 1-2v-1-1c-1 0 0 0 0 0l3-7v-8h2v-1l1-1h-1v-2-15c0-5 0-9-2-15s1-1 0-1v1c0 1 0 0 0 0v-1-1-3l-1-2v3l-1-3v-2h-1l-2-3-2-3 1-1-1-1-1-1-3-3-4-3v1h-1v-2l-1 1-1-1-2-1h-1l-1-1v2l-1-2-2-1h-1l-1-1v-1l-1 1c-1 0 0 1 0 0l-1 2v-1-1h-1-1v1h-1v-1c0-1 0-1 0 0h1l-2-1v1h-1v-1l-1 1v1h-1c0 1 0 0 0 0l-1-1v-1 1c0 1 0 0 0 0h-1v1h-3l-1-1h1c1 0 0 0 0 0l-1-1-1 1-1 1v-1l-1 2h-2l-3 2v1h-3 1l1-1 2-1-1-1zm169-25l1-1-1 1zm-3 1v-1h-1v1zm0 3l-1 1 1-1h1v0h-1zm-2 2l-1 1 1-1c1 0 0 0 0 0v0zm-2 1h-1s0 1 0 0l1-1 1 1h-1zm2 1v-1h1l-1 1zm-1 1h-1v-1h1v-1 2zm0 0l1-1v1h-1zm-4 0s-1 0 0 0 1 0 0 0zm-3 2v-1l1-1v1l-1 1zm5-1h-1l1-1v1zm-2 0l1-1v1h-1zm8 1l1-1-1 1c-1 0 0 0 0 0zm-6 0v-1 1c-1 0 0 0 0 0zm-3 2h-1l1-1 1-1v1l-1 1zm-1-1h-1 1zm-1 2v-1h1l-1 1zm-9 0l1-1c-1 0-2 0-1 1zm13 0h-1v-1h1zm-4 0v-1 1s1 0 0 0zm-3 5l2-2 2-2v1l-2 1-2 2zm-7 13l1-3 2-1h1v-1a178 178 0 0112-11l-3 3c-1 1-1 3-3 3l-5 5-5 5zm6-14v-1l1-1v1l-1 1zm8 2v-1l1-1-1 2zm-6-1l1-1-1 1zm9 0zm-5 1v-1 1zm-7 0l-1 1v-1h1zm7 2l1-1-1 1zm-2 3v-1l2-2-1 2-1 1zm0-1h-1l1-1v1zm-5 0zm-5 0c0 1 0 1 0 0zm-7 1c0-1 0-1 0 0zm10 0v-1zm-1 0v-1zm-31 31a134 134 0 019-10h-1l-1 1 2-2 2-1v-1h-1 2l1-2 3-5 4-5 3-2 2-3v1l-1 2-1 1-1 1-3 3-2 5-2 1s-2 1-1 2h-1l-1 2-2 3h-1l-4 5-5 4zm38-29h-1v-1h1v1zm-6 0h-1v-1l1 1zm8 0v-1 1zm-20 1v-1zm9 0l1-1-1 1zm2 0h-1 1zm-1 7l2-2 2-3 2-2-2 4-4 3zm-13-5c-1 0-1 0 0 0v-1 1c-1 1 0 0 0 0zm6 6h-2l2-1 1-1h1l1-2h1l1-1v-1l1-1-1 2-2 3v-1l-1 1-1 2h-1zm-5-5v-1 1zm-2 0c0 1 0 1 0 0h-1 1zm12 3l1-1 2-2-1 2-2 1zm9-1zm-24 3l1-1 1-2v2l-2 1zm11-2h-1v-1l1 1zm6 2h-1v-1l1 1zm-18 0c0 1 0 1 0 0 0 0 1 0 0 0zm19 2v-1 1zm-13 11l1-1 4-4 4-5v-1h1v-1l1 1-3 3c-1 1-1 3-3 3l-1 2-2 2-1 1h-1zm-8-11h-1v-1h1zm1-1l-1 1 1-1zm-5 7l3-3 3-4v1l-2 3-4 3zm12 0v-1-1l2-2v-2h1l1-1-1 3-3 4zm14-6c0 1 0 1 0 0zm-12 1l-1 1 1-1zm4 1v-1 1zm-60 0zm-7 1v-1 1zm3 1h-1v-1h1v1zm63 0h-1v-1h1zm4 1v-1h0v1zm-73 0v-1 1zm66 3v-2l1-1c1 0 1 0 0 0l1 1-1 1-1 1zm-4-2h1v-1 1h-1zm12 0v-1 1zm-23 1h-1l1-1v1zm23 1v-1 1zm-25 2l1-2-1 2zm-35 0zm28 9h-1l1-1v-1l3-3 3-3v1l-2 1-1 2-2 2v2h-1zm18-5l1-2 2-1-2 2-1 1zm8-1v-1l1-1-1 1v1zm-12 2v-1l1-2 2-1-1 3-2 1zm11-3h-1 1zm-9 8l2-4 3-4h1v1l-1 1v1l-2 3-3 2zm-6-1l-2 1 2-3 3-2-1 2-1 2h-1zm-11-1l-1 1 1-1zm-30 1h-1 1zm29 8v-1l1-2h-1l-1 1 3-2 3-3v-1h1l-2 3-2 3-1 1-1 1zm24-8c-1 0-1 0 0 0zm-8 3v-1l1-1h1l-1 1-1 1zm-15-1v-1c1-1 0 0 0 0v1zm-2 0v-1 1zm3 1v-1 1c-1 1 0 0 0 0zm-8 21l3-4 3-3-1 2-1 2 8-10 9-9-1 1-1 2-2 2-2 2-4 5-4 5h-1l-1 2v1c-2 0-2 1-3 2v-1l-1 1h-1zm4-21v-1h1l-1 1zm11 1v-1l1 1h-1zm4 2l1-1 1-2v2l-2 1zm-8-2c0-1 0-1 0 0zm-8 0zm-2 1l1-1v1zm23 0h0c-1 0 0 0 0 0zm1 1l1-1c0-1 0 0 0 0h-1v1zm-23 0s-1 0 0 0v-1 1c-1 1 0 0 0 0zm9 3l1-2 2-1h-1l1 1-1 1-2 1zm12-2v-1 1zm-17-1l-1 1 1-1zm12 1s1 0 0 0zm-22 7v-1l1-1 2-2 3-2v-1 2c-2 0-2 1-3 2l-3 3zm17-1l2-3 3-3v1l1-1-1 1-1 1-1 3-3 1zm10-5l1-1-1 1zm0 2l-1-2v1l1 1zm-19 1v-1h1l-1 1zm17 0c1 0 1 0 0 0zm-23 6h-1v-1l2-1 1-3h3a49 49 0 00-4 5l-1-1v1zm22-4v-1h-1l1 1zm-12 0h-1 1zm1 1v-1h0v1zm1 2l3-2-1 1-2 1zm0 3h-1v-1l1-1v1c-1 1 0 0 0 0v1zm-24 3v-2-1l1 1c1 1 0 1-1 2zm20 0v-1h0v1zm-3 0v-1 1zm-15 1v-1 1zm13 5l2-3 2-2-1 3-3 2zm0-2v-1zm4 2v-1h1l-1 1zm-1 1v-1h1l-1 1zm2 1v-1 1zm-3 0h-1 1v-1 1zm2 0c-1 0 0 0 0 0zm-1 1h1-1zm-30 9h-1l3-3 3-3-2 3-3 3zm3-5c0-1 0-1 0 0zm16 0c0 1 0 1 0 0zm-19 2zm-2 12l1-2 1-2h1v-1l3-3 3-3v1l-4 5-5 5zm22-7v-1-1h1l1 1-2 1zm-12-1c0-1 0-1 0 0zm17 6l-4-5 1-1 1 2 1 2 1 2zm-30-2l2-2 2-2-2 3-2 1zm23-3s0 1 0 0zm7 1l-1-1h1zm3 0v-1 1zm-3 1l-1-1h1v1zm-21 7l1-1 1-1 1-2 1-1 2-1-3 3h1l-4 3zm19-3l-1-1v-2l1 2v1zm3-2v-1 1zm5 1h-1v-2l1 1v1zm-36-1l1-1-1 1zm32 1v-1zm1 7h-2v-2-2 1h-1v-2h1l-1-3 2 4 1 4zm-34-7h-1 1zm19 2v-1 1zm18 0l-1 1v-1h1zm-37 1c0-1 0-1 0 0zm38 0h-1v-1l1 1zm-7 1l-1-1 1 1zm-31 3c-1 0-1 0 0 0v-1l2-2-1 2-1 1zm20-1v-2l1 1-1 1zm14 1v-2l1 1c1 1 0 0-1 1zm-3 4l-1-3v-3h1v3l2 1-2 2zm-22-3l-1-1 1-1 1-1v1l-1 2zm6-2h1-1zm21 0l-1 1v-1h1zm2 1v-1 1zm-4 2v-2l1 1-1 1zm2 0v-2h1v2h-1zm-30 2v-2-1l1 1 1-1-1 1-1 2zm-3 11l1-1v1l2-1v-2c2 0 2-1 3-2l2-2 2-3 3-4-5 5-5 5-1 2-2 2zm-6-11v-1l1-1v1l-1 1zm47-1c-1 1-1 0 0 0zm29 78l-1-1v-2l-1-2-1-2-1-2v2l1 2 1 2-1-1-2-1v-1l1-1h-2l-1-1v-6h-1l-1 1 1-1c0-2-1-3-3-3l1-2-1-1h-1v-1h-1v-2l-1-1-1-2-1-2v3l-1-3-2-4s-1 0 0 0l-1 1-1-3-1-3v-1l-1 1c0 1 0 1 0 0v-1-1l-1 1h-1v-2h1l-1-2s0-1 0 0l-1-2-2-1v-1l-1-1v-1-1c0-1 0-1 0 0h-1v-1h1l-2-6c0-2-2-4-3-5v-1l-1-2-1-2v-2h-1v-1-1l-1-1v-1-1h-1v-2h-1v-1-1 1l1-1-1-1c1 0 2 0 1 1s1 1 1 1v2h1l2 6 2 6h1l-1-3v-3 1h1v1h-1l1 2 2 1 1 3 1 3 1 5 2 4v1h1v1l1 2h1l1 1v4c0 2 1 1 2 2v2l2 2v1l2 1 1 3 1 4v-2-2l-1-1v-2l-2-2-2-2v-1-1l-1-1v-1-1l-1-3-2-3h1l1 1 1 2v-1-1l1 3 2 1v2l1 1v1l1-1v2c2 1 2 2 2 4l3 3v2l1 1v2l1 2-2 1v-1-1l-1-4c0-2-1-2-2-3v2l1 2-1 2v1l1 1v2h1v-1l1 1v1h1v-1l2 2 1 2v-1l1 1 1 2-1-1-1 1h1v1h1l1-1-1 1v1l1 3c1 1 2 1 1 3l1 1-1 2 1 1v1 1zm-62-77s0 1 0 0zm28 6l-1-3-2-3 3 2v4zm-35-5l1-1-1 1zm-8 0l-1 1 1-1zm14 1v-1 1zm31 1v-1-1l1 1-1 1zm-33 1l1-1 1-1-2 2zm36 4l-1-1v-1-1-1l1 1v3zm-37-3h1v-1h-1v1zm19 2zm15 1l-1-1 1 1zm2 1l-1-1v-1h1v2zm-3 0l-1-1 1 1zm-38 5l2-3c-1 0-2 1-2 3zm47-2l-1-1 1 1zm-3 1v-1zm-45 0h0zm46 1l-1-1h1c1 0 0 0 0 0v1zm0 1l1-1v1h-1zm2 2v-1-1 2zm-19 1v-1h1l-1 1zm20 4c-2 1-2 0-3-1v-3h1v4h2zm0-4h-1 1zm-18 2h-1v-1l1 1zm18 0v-1 1zm-55 1v-1 1zm55 0v-1h1l-1 1c-1 0 0 0 0 0zm-12 3v-1l-1-2 2 1-1 2zm-45-2h-1 1zm38 1v-1 1zm20 1v-1 1zm4 8c-2 0-2-1-3-2l-2-2v-5l1 2 2 2c-1 1 0 2 1 3 0 0 0 1 0 0l1 1v1zm-3-8h0zm-12 1v-1 1zm-49 0h-1v-1h1v1zm56 1l-1-2 1 1v1zm-1 3v1-1zm5 1h-1l1-1v1zm-9 1v-1 1zm16 1h-1v-1l1 1zm-6 1l-1-1h1zm6 3v-2l-1-1h2v2zm-91-1h-1v-1l1 1zm79 2l-1-1v-1h1v2zm-6 0h-1l1-1v1zm20 0h-1 1zm-22 1l-1-1v1h1zm22 1zm-20 4l-1-1v-1l1 2zm12 1h-1l1-2v2zm10 1v-1h1l-1 1zm-16 0l-1-1 1 1zm-5 1v-1l-1-1 1 2zm27 2h-1v-1c0-1 0 0 0 0h1zm-12 5h-1v-2l-1 1-1-2-1-1 1-1 1 3h1v-1l1 2h1v1h-1zm-14-4v-1 1zm23-1zm1 1l-1-1h1v1zm1 2v-1-1 2zm-19 4l-1-3-2-3 1 3 2 1-1 1 1 1zm-5-5h-1 1zm1 2l-1-1 1 1zm22 0c0-1 0 0 0 0zm9 0h-1 1zm-30 3v-2l-1-1v1l1 2zm17 0v-3h1v2l-1 1zm-9-2s0 1 0 0v-1 1zm5 2h-1v-1-1c0-1 0 0 0 0h2v1l-1 1zm1 1v-1-1 1 1zm11 0h-1l1-1v1zm-13 1v-1h1l-1 1zm11 2v-1l-1-1 1-1v1l1 1-1 1zm-6 5l-1-1h-1v-1l-1-1 1-1c-1-2-2-3-1-4l1 1v1l1-1c0-1 0 0 0 0v2h-1v1l1 1c0 1 0 0 0 0h1v2 1zm-15-4v-2l-1-1 1 1v2zm14 0l1-1-1 1zm12 1v-1c0-1 0 0 0 0v1zm-25 1v-1-1 2zm15 2v-1-2h1l-1 2v1zm1-2v1-1zm-2 1v-1h-1l1 1zm3 2v-1 1zm8 0s0 1 0 0zm-8 2v-1h1l-1 1zm-13 1l-1-1 1 1zm13 0h-1 1zm9 1v-1 1zm-8 0v1-1zm-11 6v-4l-2-2 1 3 1 3zm20 3v-2-2l-1 1v0l-1-1c0-1 0-1 0 0h1l-1-2v-3l1 1h1l1 3v2c0 1 0 1 0 0h-1l1 1v1c0 1 0 0 0 0l-1 1zm-17-4v-2l-1-1v1l1 2zm1 5l1-1-2-1-1-2 1 2 1 2zm15-2l-1-1 1 1c0 1 0 0 0 0zm3 2l-1-1v-1h1v2zm-2 3v-1s0-1 0 0h1l-1 1zm12 1v-1 1zm-15 1v-1 1zm19 1l-1-1 1 1zm-20 1l-1-1 1 1zm5 1s0 1 0 0v-1 1zm-2 3h-1 1zm8 4v-1h1l-1 1zm1 4v-1 1zm6-206l-1 2c-1 1-1 0-1-1h1l1-1zm-2 4zm-89 29zm60 13l2-2-1 1-1 2zm0 0h-1v1h1l-1 1-1 1h-1l-1 1 2-3 1-2h1zm-21 12v0zm35 115v0zm13-167l1-1 1-1v2l-1 1-1-1zm-23 36v0c0-1 0 0 0 0zm-15-1v1l-1-1h1zm-14 14v0zm33-13l-1 1v-1h1zm-22 113h1v1l-1-1zm0 0v1l1 1v-1h1l1 1 1 2 1 1v1l1 2v2l-1-1v-1h-1v1l1 1 1 2 1-1 2 2v3h1l1 4v3l1 1 1 1v-3l2 3c1 1 2 2 1 3s-1-1-1-1v1l1 1h1v1l1 2c1 0 2 1 1 2s0 2 1 3l1-2v3l2 1 1-1v2l1 1 1-2 1 2 1 2v-1 1l5 4 4 4 1-1 1 1v1l2-2c1 0 2-2 1-3h1l1-1-1-1v-1-1-2h2v-2-2h1v-3-2l2-2-1-1v-6l-2-5c-2-1-2-2-2-4l-3-3-2-4v-2l-1-3h-1l1-1-1-1-3-6-3-6-1-2-2-2-1-1 1 2v1l1 1h-1v1l1 2-1-1c0-1 0 0 0 0v1h1v3l1 3h-1c-1 0 0-1 0 0l1 1 1 2c0 1 0 1 0 0h-1l1 3 1 1 1 2-1 3h1s0-1 0 0h1l-1 1-3-3-2-2v-1h-1v-1-1l-1-1-2-2-1-2v-2l-2-2-2-2h1v-2l-2-1-1-2v-1l1-1-4-7-3-7-4-10-5-9-3-6-2-6v-1l-2-4-2-4-1-3 2-3 3-1 2-3 3-3-3 2-3 2 7-8 7-7h1v-1h-2l-1 1 2-2 1-2-1 1 1-1h1l2-1 2-2-1 1-1-1 5-5h1l1-1 1-1 1-1h-1-1l1-1 1-1v-1l3-2c1-1 2-1 2-3v1h-1l7-9 7-8 6-7 6-7c0-2 2-4 3-5l5-4v-2h2l1-4 1-3h1l-1-1c-1-1 0 0 0 0l-2 1h-2l-2-1v2h-1l-1 1-2 1h-1v1h1l-2 1-2 2-2 1-2 2v-1s-1 0 0 0l1-2 1-2-3 4c-1 2-3 3-5 3l-4 4-4 4-4 6-5 4-1 2h-2l4-5 4-7 1-2-5 5-5 7h-1l-3 5-4 4v1h-1c-1 0 0 0 0 0l-1 1v1h-1v1l-2 2-1 2-2 3-2 1-1 1v1l-2 1-2 2v1l-6 8-7 7-3-6-2-6-4-8-4-7h-1-1l-2-1-2-1v1h-1-1 1l-1-1-3 1-3 1-1-1-1-1v0l-1 1 1 1h-1v1h-2v1h-1l1 1-1 1h-1l2 7 2 6a888 888 0 0013 30l-1 3-2 2c0 1 0 1 0 0l-1 1v1l-6 6-1 1-6 9h-1l-5 7-5 6h-1v2l-2 1-1 1-1 2-1 2-2 3c-1 0-3 1-3 3s-2 3-3 4v1h-2l-1 1h1v1l-1 1-1 1v2l-1-1v1l1 4 1 3h-1v1l1 2 1-1 1 1v1l1-1h1v4l1-1h1v3h1l2 1v-1h2l-1 1h1v-1 1l1-1v-2 1h1l1-4 3-3 1-4 2-2 2-3 2-2 3-4 2-4 4-4 4-5h-1l-1 1-1 2h-3l2-1 2-2h-1a250 250 0 0119-21h1l-2 2-1 2 1-1 1-1 1-1h1v1h1c1 0 0 0 0 0v3h1l1 1v2h1l-1 2 1 2h1l2 6 2 5h1v2l1 1-1 2 2 1v1-2l1 3 1 4v-2l1-1v1h1c0-1 0 0 0 0l-1 1v2h1v1c-1-1 0-1 1-1l1 2h1v-1 2l-1 1 2 7 3 6v-1-1l-1-1 1-1v1l1 1v-1 2l1 1h-2l1 1z"/></g></svg>