<svg id="logo" viewBox="0 0 930 270" xmlns="http://www.w3.org/2000/svg"><g id="bentobox"><path d="M22 229h0zM59 96h-1 1zm12 7zm30 5v-1zm-2 4v-1h-1l1 1zm-47 0v-1 1zm-3 0h-1 1zm1 1v-1h1l-1 1zm43 0v-1h1l-1 1zm-59 27l2-2v-1l-1-1h2l-1-1h-1l1-1 2-1h-2l2-1 1-2v-1l1-1-1 1v1h-2-1v-1l3-1 2-2h-1l2-1 2-1h1l2-3-1 1v1h-2l-1 1h-1l1-1 1-1v-1h-1l1-1 1-2-1 1v1-1l1-1 1-1v-1l1-1v-1c-1 0-1 0 0 0h2v-1h1l1 1v1c-2-1-3 0-4 1h2l-2 2-1 3h-1-1 2l2-1-1 4-2 3-1 1h-1 1v-1h-1 1v-1c-1 0-2 1-2 3s-2 4-3 4l2-1 2-2-3 5-1-1-2 3-3 3zm18-27v1l-1-1h1zm-3 4l1-1h-1l1-1h1c0 2-1 2-2 2zm63 2c0 1 0 1 0 0zm-71 1h-1 1zm-1 3h-1 1zm75 3l-1-1-1-2 1 1 1 2zm-25-2h-1 1zm-46 0l1 1v-1h-1zm0 1v-1 1zm-5 1v-1 1zm-1 1v-1zm80 1l-1-1 1 1zm-75 2v-1 1zm-8 3h-1l1-1v1zm0 0l-1 1 1-1zm-2 3v-1l2-1-2 2zm7 5h0zm-5 2h-2l2-2v2zm-5 5c-1 0-1 0 0 0v-2l3-2 3-1-1 2-2 2-1-1h-1l1 1-1 1h-1zm3-4l-1-1h1zm6 0l-1-1c0 1 0 1 0 0h1v1zm-4 6h-1 1zm-6 2v-1l2-1-1 1-1 1zm-1 3h-1 1zm95 3h-1v-1l1 1zm-98 1v-1h1l-1 1zm80 4l-1-1h1v1zm-2 0v-1 1zm-86 6s0 1 0 0v-1 1zm98 0zm-84 1h-1v-1h2l-1 1zm82 2l1-1v1h-1zm-21 2h1-1zm-4 3h3v-1h-2l-1 1zm0 1v-1 1c-1 0-1 0 0 0zm1 4h-2 1l1-1 2-1-2 2zm-60 0v-1l1 1h-1zm79 1h-1 1zm-3 2h1v-1h1l-2 1zm-81 0c0 1 0 0 0 0zm-3 4l1-2h1l1-1-1-1-2 2v2zm61-3h-1 1l1-1-1 1zm22 0zm0 2h-1v-1l1 1zm-2 0h-1 1v-1 1zm-12 1v-1l1 1h-1zm-71 0h1v-1l-1 1zm82 1h-1v-1l1 1zm-84-1h1-1zm-2 2h1l1-1-1 1h-1zm85-1l-1 1v-1h1zm-28 2l1-1 1-1h-2v1l-1 1h1zm16 2l1-1-1 1zm7 0c0-1 0-1 0 0zm-59 1l-1 1v-1h1zm-23 2v-1h1l-1 1zm60 0h-1l1-1v1zm18 0h-1 1zm-30 0c0 1 0 1 0 0zm-53 5l1-1v-2l1-2v3l-2 2zm61-4v1-1zm21 0v0zm-26 1h-1l1-1h1l-1 1zm-52 1l-1-1 1-1v1zm-3 1l1-2-1 2zm52-1l1-1-1 1zm-50 1v-1h1l-1 1zm54 0v-1zm22 0zm-12 1l-1-1 1 1zm-70 2l1-1v-1l-1 1v1zm5 0l1-2h1l-1 1-1 1zm73-1h-1 1c0-1 0 0 0 0zm-75 1H7v-1h1v1zm53 0v-1 1c-1 0-1 0 0 0zm-51 0l-1 1v-1zm42 1l-1-1h1v1zm29 0v-1h1v1h-1zm-31 0v-1 1zm0 0h-1v-1l1 1zm30 1h-1l1-1v1zm-72-1c0 1 0 1 0 0zm38 1l1-1-1 1zm7 1l-1-1h2l-1 1zm15 0h-1v-1l1 1zm-34 0v-1 1zm8-1l1 1v-1h-1zm-33 3v-2l1 1-1 1zm57-2c1 0 0 0 0 0zm9 2c-1 0-1 0 0 0v-1l1-1h1l-1 1-1 1zm-26-1h1v-1l-1 1zm-41 1v-1zm-3 0h1v-1H5v1zm29 0l-1-1c-1 0 0 0 0 0l1 1zm17 0v-1h-1v1zm-13 0c0 1 0 1 0 0zm-9 2h-2l-1-1h1l2 1zm4-1h-1-1l1-1 1 1zm27 1v-1 1zm-24-1h-1 1zm1 3h-6v-1h3l3-1 3-1h3l-3 1-3 1v1zm13-2h-1 1zm7 1l1-1v1h-1zm-12-1l-1 1v-1h1zm-34 1v-1zm20 0h-1v-1h1zm-25 2h1v-1H6l-1-1v1l1 1zm2 0v-1-1l-1 2h1zm34 2l-2-2h3l2-1h5l-2 1h-3l-1 1-2 1zm-3-2c-1 0 0 0 0 0h0zm-3 2h-2v-1l-1 1v-1h-1l3-1h3l-2 2zm-8-2h-1 1zm38 0c0 1 0 1 0 0zm-35 0h-1 1zm-18 2h-1v-1l1 1zm50 0h-1 1zm-24 2h-3l2-1 2-1-1 2zm22-1h-1 1zm-13 1v-1h-1 1v1zm-24 1v-1s0-1 0 0v1zm2 0v-1l1 1zm6 0h0zm-1 1h-1v-1c1 0 2 0 1 1zm-17 0v-1 1zm15 0s-1 0 0 0v-1 1zm-13 6h1-1zm20 1c0-1 0-1 0 0zm-6 2v-1 1zm-5 0h-1v-1h1zm3 0h-1 1zm5-93v1l-1 1v-1l1-1zm54 47h0zm25-67v1-1zm-2 64v1l-1-1h1zm0 0h1a618 618 0 0111-19l3-9v-10l1-1v-1-1h-1v1l-1-2 1-1-2-7a184 184 0 00-3-5l-8-9-4-2-4-2h-4 2c1-1 1 1 2 1l-1 1-3-1-3-1 1-1h-3l3-2 3-3c1 0 0 0 0 0v1l1-1h1l11-14c4-5 6-11 6-18l1 5-1 3 1-5-2-5-3-7-5-5h-1l-5-2-6-2v1l-1-1h-1l-3-1h-7v1h-1a68 68 0 00-29 6 111 111 0 00-25 14h-1v2h-3l-1 3-2 1-3 6-3 6h-1l2 3 1 2 2 2v2h2l2 1 3 1 3 1v1l2-1 2 1v-1h1l3-1 2-2v-4l1-2 2-2 2-2 1 1v-1c0-1 0 0 0 0v-1h2v-2h1l8-5 9-4a65 65 0 0136-7c-1 4-3 8-6 10l-7 9-10 10a50 50 0 01-16 10l3-4 1-4v-4-1l1-1h-3l-3-1v1c-1-2-4-2-7-2v-1h-2v-1l-1 1h-1v1h-2-1l-1 2 1 1a204 204 0 00-10 19l-6 9a166 166 0 01-7 14l-2 4-2 4-1 1v2h-1l-1 3-1 3-2 4c-1 2-2 3-1 4l-2 6c-1 2 0 4 1 6l2-1 1-1v1c1-2 2-3 4-3l2-2 3-2 1 1 2-1h1l1-2 2-1 1-1 1-1 1-2 1-3 2-2 1-2v-1l4-6 3-7 1-1v-2l2-2 4-2 4-2 7-2 7-5h3l3-2v1h1c1-2 2-2 3-1h1l1-1v1l8-1h9v1c-1 0-1 0 0 0h1l2 1c3 1 6 3 7 6l1 9-3 9-5 8v2l-2 1v2l-1 1v-1l-1 2-1 1h-1l-1 2-1 1h-1l-1 1h2v1l-5 2h1l-1 1 2-1 1-1c-2 3-5 6-9 8h1l-5 4h3-1l-1-1a7 7 0 003-1v1c-1 0-1 0 0 0v1l-3 1h-1-1 1v-1l-2 1-2 1v1l-2 1-3 1v1l1-1 1 1v1l-2-1v2h1l-1 1h-1l-2-1-2 1h1l-1 1v-1h-2l1 1-3 1-3 1h3l-3 1-3 2 2 1h-1l-1 1v-1l-1 1-1-1h-1v1h-1v-1 1l-1 1v-1l-2 2-1-1 2-1-2 1-1 2h-1-1 1v-1l-4 2-4 1h3l2 1-1 1 3-1 3-1 1 1h2l3-2h3v-1l4-3 5-2h3l2-1-2 2h-3l-2 2-3 1-3 3-5 1-5 2-4 2-1-1h-1-1l2-1 2-1h-1l-2 1v-1l-4-1c0 1-1 2-3 1h-3l-2 1h-2 1v-1h-2l1 1v1h-1-1-1l-1-1-1-1 2-1 2-3 2-4 3-2 3-4-1 1h-1v-1-1l1-1h1v-1-1l-1 1-1 1 1-2 2-2h-2-1l3-4 3-3 1-1 1-2h1v1l3-4 4-3h-1l4-3 4-3-8 3-7 2v1h-1l-1 1-2 1h-1l-2 2-3 2v-1l-3 2-2 1-1 2h-1l-1 1-1 1 1 1-4 4c-2 0-3 1-4 3v-1-1l-2 3-2 1 1 1h-1c1 0 1-1 0 0v-1-1l1-1-2 1-2 1v2h-1l-2 3c-1 0-2 1-2 3l1-1v2l-1 1h1v6l-1 1 1 1-1-1 1-1h1v-1h1v1l1-1v1 3H9v1h1v1H9v-1l-1 1 1 1h1v-2h2l-1 2-1 1h1v-1h1v1l1 1-2 1v1l1-1h1l-1 1 2 3 3 3v1l2 1h2v1h1l2 1h1v-1h1l1 1 2-1v1l2-1 1-1 2 1 11-4 11-5h1l1-1v-1h4l3-3a379 379 0 0116-9v-1h1l1-1 1-1h2v-2l-1 1h-2l2-1h1l2-2 2-1v-1 1l7-4c2-1 4-3 5-6 2 0 3-1 5-3l3-5v0zM219 80v-1zm-10 0v-1h-1v1zm6 0h1l1-1h-1l-1 1zm7 0v-1 1zm-11 0v-1 1zm2 1l1-2-1 2zm5-1c0-1 0-1 0 0zm6 0h0zm-21 0h1-1zm-6 1l3-1h-1-1l-1 1zm-1 0l1-1h-1-2l2 1zm-11 1h1v-1l-1 1zm11-1l1 1-1-1zm-16 1h0zm41 0l-3 1h-3l3-1h3zm-27 1h-1l1-1v1zm20 0h-1 1zm-39 2h-2l2-2h1l1 1h-1l-1 1zm23-1h-1v-1h1zm3 0h0zm-6 0v-1l1 1h-1zm2 0h-1 1zm16 0zm-43 0c0 1 1 0 0 0h-1 1zm20 1v-1 1zm-30-1zm34 0h-1 1c1 0 0 0 0 0zm31 0v0s1 0 0 0zm-70 0h0zm37 1v-1zm41 0h1c0-1 0-1 0 0zm-24 0v-1l-2 1h2zm15 0h-1l-1-1 2 1zm-18 1v-1l-1-1-1 1 1 1h1zm3-1h0zm-16 0zm6 1h1v-1h-1l-1 1h1zm28 1l1-1c0-1 0-1 0 0l-1 1zm-53-1v-1 1l1-1-1 1zm29 0h1-3 2zm6 0s1 0 0 0zm-12 0l1 1v-1h-1zm5 1h1v-1l-1 1zm-23 0h-1c0-1 0-1 0 0h2-1zm43 0zm-52 1v-1h0v1zm5 0v-1h1l-1 1zm14 0v-1h-1l1 1zm-8 0h0zm-2 0h-1 1zm-7 0h-1 1zm-3 1v-1 1zm14-1zm-9 2l1-2h3l-2 1-2 1zm-1 0l-1-1h-1l1-1h2v1l-1 1zm14-2h0zm-21 3l1-1 1-1 1 1h-1l-2 1zm0 0l-1-2h1v2zm57-1h0zm-51 1v-1h0v1zm-2 0h-1v-1h1zm36 2h-1v-1l1-1v2zm-53-1h-1v-1h1zm44 1l-2-1-1 1c0-2 1-2 3-1v1zm11-1zm10 1h-1v-1h2c0 1 0 1 0 0v1h-1zm-16 0v-1 1zm-10 1l-1-1v-1l1 1v1zm-7 1h-3l1-1h2l1-1h1c1 0 0 0 0 0v-1l1 1h1l-1 1h-1l-2 1zm17-2h-1 1zm-12 1h-1 1zm-28 2v-1h1l-1 1zm25 0v1-1s1 0 0 0zm-47 1l-1-1h1v1zm50 1l-5 1-5-2 3-1 3 1h3l1 1zm-10 1v-1h1l-1 1zm-40 0h-1v-1l1 1zm17 0h-1v-1h1zm27 0h-1 1zm17 1h-1v-1h1v1zm-60 0c0-1 0-1 0 0zm6 1v-1 1zm-3 3v-1l-1 1v-1h1c1 0 0 0 0 0v1zm-4 1l1-1-1 1zm3 0h-1 1zm-4 0h0zm5 3v-1 1zm-2 25zm40 2h-1v-1l1 1zm-9 1h2l1-1h-2c-1-1 0 1-1 1zm-9 1l2-1h2v-1l-2 1c-1-1-2 0-2 1zm8-1s0-1 0 0zm11 0h0zm-47 3h-2 4-2zm-4 1h-1v-1h1zm37 0h-1l1-1v1zm2 0h-1v-1h1zm-4 0zm1 3l1-1v-1 1l-1 1zm15 0zm-57 21zm-1 6h0zm-1 6c0 1 0 1 0 0zm0 5h-1 1zm75 2c0 1 0 1 0 0 1 0 1 0 0 0zm-78 4l1-1c1 0 0 0 0 0h-1v1zm0 0zm0 6h0zm63 5v-1l1-1v1l-1 1zm-11 5h-1v-1l1 1zm-41 4v-1zm1 1v-1l1 1h-1zm14-101v1h-1v-1h1zm1 14h1v1l-3 5-3 5v1h-1l-8 1-8 2v-1l-3 3-1 5 1 1v2l1 2h2v1h-1l2 4 4 1-1 1 1 2h-1v1l-1 3-1 3v1l-1 3-2 3v3l-1-1v2 3h-1 1v1l-1 1a62 62 0 01-1 7h-1l1 1-1 1v-1 5l1-1 1 2v2l-1-1-1-1 2 2v2l2 3 1 3h1v1l1 1h1l1 1h1v1h-1l1 1h3v1h4l1 1 7-1a138 138 0 009-2h3l3-1 2-1h2c2-2 5-2 7-3l6-2 2-1h2v-1h1l2-1 1-2 4-3c1-1 3-3 3-5h2l-1-1c-1-1 0 0 0 0l3-2c0-2 1-2 2-2l1-2v-2h-3a325 325 0 00-54 11h-9l1-4 1-4 8-17c2-6 5-11 9-15a360 360 0 0031-6v-2l2-1 2-1 4-4 4-5h-2v-1l-1 1-1-1-2 2h-4l-2 1v-1h-6l-6 1v1 1h2v-1s1 0 0 0l1 1v-1 1l4-2v1l2 1h-3l-2 1h6l-11 2h-12l1-1v-1h1v1l3-1h-2-1l3-1h2l2-1c1 0 1 0 0 0v1h1l1-1h1l1-1v-1h-2-2v1h-4-2-1v-1-1-1h1l1-2 1-3 2-2 2-3 1-3 2-1v-1h-1a140 140 0 018-11l3-1h4l2-1h4l3-1h4l4-1h5l1-1h2v-1h-14l-3-1-3 1 1-1v-1l-2 1v-1-1l7 1 6-1h-1c-1 1-2 0-2-1a20 20 0 005 0l3 1h4l1-1h8v-1l1-1c0 1 0 1 0 0h4c0-2 1-2 2-2s1 0 0 0h-1v-1l1-1h1-1l1-1h2v-1h-1v-1h1l2-1 1 1v-1h1v-1h2v-2h2v-2h-3c-1-1-2 0-3 1v-1h-1v1l-1 1v-1h-1l-3 1a63 63 0 01-7-1l-3 1v-1h-2v1h-4c-1-1-3 0-4 1h-10-1-2l-3 1v-1l-2 1v1l1 1h-1l-1 1h4l1-1 1 1h1v-1h3l1-1h1s1 0 0 0v-1h5v1h1v-1l1 1s0-1 0 0h1l2-2v1h-1 3v1l1-1v2h-1-1l5-1h5l-2 1h-2 1v1h5l-4 1h-4 1v-1h-1l2-1-2 1-1 1h-3l-3 2-1-1-4 1v-1l-3 1h-4l-6 1h-7l-1 1v-1h-1v1h-1-1l1-2 2-1h-1l3-2h3v-1h-1l-1 1-1-1-2 1-1 1v-1h-2l-2 1v-1h-1l2-1h6v-1h4v-1h-3v-1l-5 2v-1l-1 1h-1v-1h-1-3l-2 1h1l-4 1h-5l3-1c1 1 2 0 2-1l-3 1-2 1v-1l-3 1-3-1-1 1h-1v-1l-3 1-2-1h-3l-2 1-1-1v-1 1h-1l-2 2-1 1-1 1-1 2 1 1h-1v2l1 2-1 1h1l-1 2v1l1 1 1 1h-2l1 1 1 1h-1v1h1l-1 2 1 1h1l1 1v-1l2 2h3v2h7l-3 5-3 6zm86 1a203 203 0 01-7 21h-1v8l-1 8v-2l-2-1 1-4 1-3v-3l-1-2 2-3v-5l1 1c0 1 0 0 0 0v-4l-1-3h2l-1-1v-1 1h1l1-2v-3l1-2 1-3h-1v-1l2-5 2-4h1l-1-1 1-1 1 8-2 7zm97-83l1-1-1-1v2zm-13 4v-1 1zm9 0v-1l1 1h-1zm0 2v-1 1zm-1 11l-1-1v-1-1l-1-1a66 66 0 012-7v2l-1 2 1 1v-2l1-1v4l-1 3v2zm-10-8l1-1v-1l-1 2zm13-1h-1v-1l1 1zm-3 6v0zm-1 1h-1v-1l1 1zm-1 3l-1-1v-1l1 1v1zm1 2h-1v-1l1 1zm3 1v-1h-1l1 1zm-5 3v-2-2l1 2-1 2zm6-3h-1zm-2 1v-1 1zm-8 16l-1-1v-5l1-4h1v-1-1l1 3-1 2-1 3v4zm-75-8l-1-1h1v1zm76 2v0zm0 2zm-3 2v0zm-1 5v-1h1l-1 1zm1 1v-1 1zm-3 3l1-2v-1l1 1v2h-2zm1 3l-1-1 1 1zm-3 5v-1-1-1h1v2l-1 1zm0 4l-1-2v-1l1 1v2zm7-1v-1zm-88 1v-1c1-1 0 0 0 0v1zm2 2v-2-1l1 1-1 2zm79 0l-1-1v-1l1 1v1zm-80 4l1-1-1-1 1-1v-1l1 2-2 2zm78-2l1-1-1 1zm2 1v-1zm6 0v-1 1zm-85 3l-1-1h1v1zm-4 9h-1v-1-1-2l1-1v-2l1-2v2l-1 2 1 1h-1v4zm6-7h-1v-1h1v1zm73 0l1-1-1 1zm-75 1v-1zm-8-1v1l-1-1h1zm83 5v-1-1h-1l1-1v-1h1v3l-1 1zm-77-2l1-2v1l-1 1zm-9-1zm94 1c0 1 0 0 0 0zm-94 1h-1 1zm8 1zm4 1zm-7 1h-1 1zm0 3v-1l1 1h-1zm4 3l1-2v-2l-1 1v3zm-5 2h-1v-3l1-3 1 2-1 2v2zm69-4v-1zm-65 3l-1 1v-1h1zm-8 1v-1 1zm5 1v-1h1l-1 1zm-2 1l-1-1 1 1zm69 2h-1 1zm-67 3zm-3 5zm0 2l-1 1 1-1zm-3 0h-1 1zm6 1h-1v-1l1 1zm-2 2v-1 1c1 0 0 0 0 0zm-3 2v-1 1zm69 0h-1 1zm-72 1v-1zm3 0v-1l1 1h-1zm1 4h-1 1zm0 2v-1-1l1 1-1 1zm-8 8l1-1h-1l1-1c0 1 0 0 0 0h-1l-1-1 1-1-1-1v-2s1 0 0 0v1h1v-1 3l1-1v-2l1 4c1 1 0 2-2 3zm7-4v-1h-1v-1h1l1 1-1 1zm0 2l-1-1v-1l1 2zm-8 1v-1 1zm2 3h-1 1zm0 2l-1-1 1 1zm6 2v-1 1c1 0 0 0 0 0zm2 4l-1 1v-1h1zm-10 1h-1l1-1zm8 2h-1 1zm-12 18v-1zm7 8h-1v-1h1zm3 1h-1v-1h1zm-1 1v-1 1zm-2 1v-1zm-6 0v-1 1zm7 1v-1 1zm-7 0h-1 1zm3 3l-1-1h2l-1 1zm-7 2zm-11 1v-1zm15 1v-1c0-1 0 0 0 0v1zm-8 1v-1 1zm3 0h-1v-1h1zm-2 0zm53 12h-1zm-43-85h1-1zm0 0h-1v2l-2 2v2l-1 2-1 5-1 4v1h-1v1c1 1 0 1-1 1h1v1l-1 4-1 4v4a114 114 0 01-2 4v-1l-1 3v3a69 69 0 00-5 22l-1 2h-1v5h2v-1 1l1 1-1 1 1 1v-1h1v-1h2l1 1h-1 6c0-2 0-3 2-4l2 1 1-1c0 1 0 1 0 0v-1h2l1-1 1-1h-1v-1l2 1v2l1-1v-1h-1 2c1 1 1-1 1-1v-3-2-1c1 0 1 0 0 0v-3l1-3h-1 1a63 63 0 001-4l-1-1v-2l1 1v-2-2l2-9 2-10h1l1-9 2-9 1-1v-2l1-1v-2l1-3 1-3v-3-2h1l1-3v-2l1 7 1 7 1 4v5l1 2v2l2 18 3 18c1 6 1 12 3 17l5 15v1l2 2 1 1h1l1 1v2l2 1 2 2 2 1h2c7-1 13-3 18-7 4-3 8-8 9-13l1-1 1-1 1-4 2-3 5-20 6-21-1-1 1-1c0-1 0 0 0 0v-1l2-8 1-8 2-10 3-11a26 26 0 001-8l2-6 1-5-1-2h-1l1-3v-3c3-3 4-7 5-11l3-11v-1l-1-1v4l-1 3-1 3a167 167 0 00-2 6l-1 2 2-7 1-7 1 1v-3l1-3h-1c0-2 1-3 2-3 0-3 0-5 2-8l1-7v1l-1 1 1-2-1-2v2l-1 1 1-6 1-6-1 2-1 3 1 1-1 2-1 1c-1-2 0-5 1-7l2-8 1-1v-5l1-5v-1-2l1-5 1-6-2-1-1 5-1 4-1 1v1l-1 2-1 5-2 4-2 4-1 5h-1v2l-1 1 1 1v1l-3 6-2 6a433 433 0 00-7 17v4l-1 3-1 2v2c0 1 0 1 0 0l-1 1v1h-1v3l-1 3v2l-1 4-1 3-2 3-1 3v2l-1 3v3l-1 2-1 1v1 3h-1v2l-1 2-1 2 1 3h-1c0-1 0 0 0 0l-2 11a270 270 0 00-6 23 393 393 0 00-14 41l-3-16-2-16-1-10-1-10-1-1v-16a222 222 0 01-3-39c0 1 0 1 0 0l-1-1 1-5v-3l-1-4-2-3-4-3c-1-2-3-2-5-3l-2 1h-2l-1-1-2-1v1l1 1h-2-2 1v-1l-3 1h-5c-2 1-3 3-2 4l-1 6 1 1a90 90 0 01-6 14 52 52 0 00-2 12l-1 1-1 2v2c-1 0-2 1-1 3l-2 2v4l-1-1v2 1l-1 5-1 5v1zm255-79h0c0-1 0 0 0 0zm18 1h1l1-1h-1l-1 1zm-7-1h-1zm-8 0s-1 0 0 0zm11 0zm8 1l2-1-2 1zm-44 0h4l-2-1-2 1zm47 0h0zm-42 0zm52 0h0zm-58 0h-1 1zm51 0h-1zm-54 0c0 1 0 1 0 0zm29 3h-1l1-1v1zm-21 0h0zm42 1h-2l-1-1h2l1 1zm-28 0l-1-1h1v1zm3 0h-1l-1-1h3v1h-1zm-27 1h-1l-1-1v1h-1v-1l1-1h3v1l2-1h4l-3 1-4 1zm-5 0h-1v-1h1l1-1h1l-1 1-1 1zm13-1h-1v-1h1v1zm11 1s-1 0 0 0 1 0 0 0zm-26 0h-1 1zm-28 4v-1l1-1a241 241 0 018-1h1l4-1h13l-8 1-7 1h-1l-1 1h-4v-1l-2 1-2 1-1-1zm72-2v-1h-3v-1h2l2 1h1v1h-2zm-5 2v-1h-3-2v-1-2h4l-1 1h-2v1h5a239 239 0 012 1l-3 1zm-73 10v-1-1h1c1-1 2-2 4-1l4-1h-4l-5 1 1-3v-2l3-1h3l3-1 2 1h3l3-1h1l2-1h8l5-1h1l5-1v1h3v1l3-1 2-1v1h2l2 1-1 1h-2v-1h1l-4 1h3l-1 1 3-1 3-1 8-1c2 0 4 0 5-2v4h-5l-5 1c-1 0 0 0 0 0l1 1h-11l-5 1-5 2-2-1-1-1a102 102 0 00-15 3h1l1-1h6l6-1-2 1-2 1h-7c-1-1-2 1-2 1h-6c-2 1-3 0-4-1l-1 1-1 1v-1a28 28 0 01-8 3zm55-13h0zm10 0zm-5 1l-1-1h2v1h-1zm-7 0l-1-1 1 1zm-37 1v-1h-1v1h1zm25 0l1-1-1 1zm-2 0h1l-1-1v1zm44 0h-2 3-1zm23 1zm-141 2v-1l-2-1v1l-1 1 1-1 2 1zm143 0v-1zm-48 0h-1v-1h1v1zm1 0v-1 1zm-106 1l1-1h-1v1zm21 0l1-1-1 1zm59 0zm-81 0c0 1 0 1 0 0zm-8 1h-1 1zm121 0h-1v-1l1 1zm-6 1l-1-1h1v1zm-2 0h-3 3zm-94 1v-1h1l-1 1zm-18-1h0zm21 0h-1 1zm-22 0l-1 1v-1h1zm32 1v-1 1zm-34 0l-1-1 1 1zm57 0h1v-1l-1 1zm-27 0zm-40 0zm40 0h-1 1zm-4 2v-1c1 0 1 0 0 0v-1l1 1-1 1zm2 0v-1h1v1l-1-1v1zm54 0l-1-1h1v1zm-61 0h-1 1zm37 0h1-1zm-43 1l-1-1 1 1zm4 0v-1 1zm2 1h-1l-1-1h2v1zm-7 1h-3v-1l1-1h2v2zm-4-1h-1 2-1zm22 0h-1 1zm-6 1h-1v-1h1zm3 1l-2-1-1-1h4l-1 1v1zm52-1h-1 1zm-73 0l-1 1v-1h1zm-3 1l-1-1h1v1zm102-1c0 1 0 1 0 0 0 0-1 0 0 0zm-108 1v-1 1zm78 1v-1h1l-1 1zm-75 0l-1-1h1v1zm-1-1h-1 1zm5 1l1-1 1 1h-2zm23 0h-1v-1l1 1zm29 1l-1-1c-1 0 0 0 0 0l1 1zm-17 5v-2-1l1 2-1 1zm-11-1l-3-1h3v1zm-4 21h-1v-8l2-3h-1l3-4 1-3v-1-1l1-2v1l-1 1 1-2h1v4l-1 2-1 1v1l-1 3v2l-2 4-1 5zm0-20c0-1 0-1 0 0zm3 0h-1l1-1v1zm2 2l1-1-1-2v3zm93-2h1-1zm-1-1l1 1-1-1zm-102 1c1 0 0 0 0 0zm-6 1h-2l2-1h2l-2 1zm15 0v-1 1zm-18 0c0-1 0-1 0 0zm28 0c0 1 0 1 0 0s1-1 0 0zm75 1h-1l1-1v1zm-80 2v-1-2l1 2-1 1zm-8-1c0 1 0 0 0 0s0-1 0 0zm7 6v1l-1 1v1l-1-1 1-1v-3l1-2h1l1 1v1l-2 2zm-5-1v-1 1zm-48 0l-1-1 1 1zm45 6l1-1c0-1 0 0 0 0l-1 1zm-2 7l-1-1h1v1zm9 1h1l-1 1zm-14 2zm13 4l1-3v2l-1 1zm-14 6l1-1h-1v1zm9 14l2-7c0-3 1-5 3-8l-1 5-1 5-2 3-1 2zm-16 7h1v-1-2-2l2-4c0-1 0-3 2-3v-2-1-1h2v-3l1-2-1 1-1 2v-1-1l-1 1-1 2 1 1v1l-1 2-2 2 1 1h-1v1h-1v4l-1 5zm10-20h-1 1zm-6 3v-1 1zm-2 5l1-1c0-1 0 0 0 0l-1 1zm3 1v-1-1 1l-1 1h1zm9 6v-1 1zm0 7l-1-1h-1l3-6v3l-1 4zm0-4v-1-1 2zm-13 7l-1-2 1-1v1 2zm-2 0l-1 1 1-2v1zm-3 15l1-5 2-5-2 6-2 4zm-1-6c0 1 0 1 0 0zm-3 13v-2l1-1v1l-1 2zm-2 6v-2-1l1-1 1-1v1l-1 2v1l-1 1zm0 1v-1zm-4 10l1-1v1l1-2v-1l-1 1h-1v2zm3 0v-3l1 1v1l-1 1zm-2 2v-1h-1l-1 1h2zm-1 8v-2-1h1c0-1 0-1 0 0l1-3v-2h1l-1 5-2 3zm-2 1c0-1 0-1 0 0 1 0 1 0 0 0zm15 14v0zm-3 1v0zm-3 9v-1 1zm-9 6v-1 1zm37-156v1l-1-1h-1 2zm2 25h1l-1 1v-1c1 0 1 0 0 0zm10 2l-1 4v-1l1-1v-2zm-1 4v0zm-32 45v3l-2 2 1-3zm-5 15v1c0 1 0 1 0 0v-1zm-5 19s0 1 0 0zm-1-108c1 0 1 0 0 0zm26 3v-1 1zm-11 1h1l1-1h1v1l1 1h-2l-1 1h-1l-1-1 1-1zm-22 156v-1l1-2v-1h1l1-1v-1h1c0-1 0-1 0 0l2-2 2-2 2-1v-3h1l2-2 2-2 1-4 1-4 1 1 1-5 2-3s1 0 0 0l1 1a25104 25104 0 0131-96 1134 1134 0 0112-23 5086 5086 0 0064-4l-4 3-4 1v1h1l-3 1-4 1v2h-1l-1 1h-2l-6 5a107 107 0 0119-4v-1l3-1 3-1 5-1 5-1 3-1h3l2-1h3l8-3c4 0 6-1 8-3l-1-1h4l-1-1 2-1h1l1-1 1-2-2-1v-1-1-1l-3-1v-2l-1-1c-2 1-4 0-5-3l-2 1h1c0 1-1 2-3 1s-2 0-3 1l-1-1h-1l-6-1-6 1-6-1-6 1h-20a1647 1647 0 00-43 4 97 97 0 01-4-6l-3-1h-2l-1-2-2-1h-3l-2-1h-3-1l-1-1-2 9-3 7a611 611 0 00-33 4l1-1-2 1v-1h-1v1h-1-1l1-1h-1-1v1h-1-1l-2-1v1h-7v0h-1l-3 1h-12l-4-2 1-1-1 1h-1v1c0 1 0 0 0 0h-1l-1-1v3l1 2h-4l1 1v2h-1l2 4v3l1 1v2l1 1 2 3 2 3h1l5-1h6l7-2 6-1a616 616 0 0137-7v2h1v1a54 54 0 01-4 7l1 1-2 4-1 4h-1-1l-1 3v3l-1 3-2 3 1 1h-1v2l2-2v-3l1 1 1-1-1-1c0-1 1 0 0 0l1-1 1-1h-1s0 1 0 0v-1l1-1v-2l1-2v1l-1 2 1-1 1 1-3 8-1 8h-1l-1 3-2 3v1h1a165 165 0 01-4 9l-1 2 1-3v-2 2l-1 2-1 1h-1v-1l1-1-1 1v1c-2 0-2 2-2 3l-1 4v2l-1 3-4 12a109 109 0 01-4 14v2l1-3 1-1 1-1a54 54 0 01-3 11h-1l1 1v1c-1 0-2 0-2 2l1 2h-2l-1 1v1l-3 10a263 263 0 01-3 11h1l-2 10 1 10 3-3 1-3 1 1zM455 71h-1 1zm10 2h-1l1-1 1-1v1h1l-2 1zm-8-1l-2 1 1-1h1zm10 1v-1h1l-1 1zm2 0l-1-1 1 1zm-6 0h-1 1v-1 1zm-16 1l1-1-1 1zm9 1v-1l3-1h3l-1 1-1-1-2 1-2 1zm-3-2c0 1-1 1 0 0zm1 1h-1 1zm-7 1l1-1-1 1zm3 1v-1h0v1zm-6 0h-1l1-1v1zm-3 1l1-1h-1v1zm8-1zm-2 0c0 1 0 1 0 0zm0 1h-1v-1h1zm31 0l-1-1 1 1zm-32 0h-1 1zm-5 1v-1l-1 1h1zm-2 0c0 1 0 1 0 0s0-1 0 0zm10 2l3-2-3 2zm-11-1h1-1zm-2 1h1v-1h-1v1zm13 0h-1 1zm-9 6l1-1h-1l-1 1 2-3 4-3 1 1h1l-3 2-3 3zm-6-5zm-1 1h1-1zm-1 1l1-1-1 1zm-1 1v-1 1zm4 0l2-1-2 1zm3 3h-1l1-1v1zm37 1h-1v-1l1 1zm-45 1l1-1 1-1-1 1-1 1zm6-1v-1h1l-1 1zm42 2v-1 1zm-50 1h-1l1-1h1l-1 1zm62 0h-1 1zm-63 1v-1c0-1 0 0 0 0v1zm54 5l-2-2c-1-1 0-3 1-4l1 3v3zm-61-4h1v-1l-1 1zm5 0v1-1zm-2 1v-1h1l-1 1zm-9 13v-2l2-3h0l2-3 3-4h2l1-1-1 2-2 2s-1 0 0 0l-1 1v2h-1-1 1v1l-1 1-1 1-2 1-1 2zm63-7l-1-3-1-3 2 3v3zm2-2v-1 1zm-54 0v1zm54 1v-1 1zm9 23l-1-3-1-4v-5l-1-5 1-3v-3l2 11v12zm4-21v-1l1-1-1 1v1zm-11-1h-1 1zm2 4v-3 3zm6-2v-1 1zm-68 6l-2 1v-2l1-1 2-1 1-2v2l-1 2-1 1zm-5-4l1-1h-1v1zm66 3v-2-2l1 2zm12-3c0-1 0-1 0 0zm-3 1h-1 1zm-78 0l-1 2 1-2zm-1 4v-1l-1 1zm-3 0zm9 0c0 1 0 1 0 0zm65 3l-1-1 1-1v2zm-76 3v-1 1zm-1 1s-1 0 0 0zm78 0h-1 1zm0 8v-3l-1-4v4l1 3zm-2-5h-1 1zm-70 0h-1 1zm70 1h-1 1zm-77 5l2-1-2 1zm79 1v-1-1 2zm3 1zm-1 2v-1l1 1h-1zm-66 2zm61 4v-1h1l-1 1zm3 2l-1-1 1 1zm-4 10v-1-1 2zm-69 56h-1 1zm3 3v-1h1l-1 1zm2 0h-1 1zm29 2h-1v-1l1 1zM425 99h-1 1zm56 4l1 5v5l1-2v-2-2l1-1 1 3a78 78 0 010 8v5l-1 7v10l-1 3v-1l-1-1 1-8v-8 3l-1 3v-4-4l1-5-1-5v6l-1-2-1-4 1-5v2l-1-3 1-3zm-41-17v1l-6 5-5 6-3 2-2 3 2-4 2-4v3l1-4h1l1-1v1l1-2h1l1-2 1-1v1l2-2 3-2zm-15 4v2l-1-1 1-1zm69 17h1v1h-1v-1zm0 0l1-1-1-1c0-1 0 0 0 0l-1-1v-2-1h1l-1 1v-1-5l-2-6v3l1 3v-1 2h1l-1 1-1 1-5-12c-2-4-5-8-8-10h2l5 6 4 6h1v1l1-1v-1c-2-4-5-8-9-11l-6-3-5-2-5-1v-1h-5l-3 1h-5l-3 2v-1h-1l-1 1v2l-3 1 1-1h-1l1-1-2 1v1h-1l-1 2v1l-2 2-3 2 2-2 1-2-1 1-1 1v-1-1l-2 3-3 2v-1a4782623 4782623 0 00-8 7v-1a127 127 0 01-3 4v1l-1-1-4 6-4 6-1-1v2l-1 1h2l-1 2c0 1 0 0 0 0h-1a787 787 0 01-13 29l-1 6 1-2 2-3h-1l2-4a34 34 0 014-7l3-3v-2l3-2 1-3 2-1v-2l1-2 2-2-1 2v2l-1 1v1l3-3 2-3-1 3-1 3 2-3 3-3v1l5-6 3-2 3-3h-1v1l-1-1h2v-1-1h3l3-3 3-1 2-2h1l1-1 2-2c3 0 5-2 8-4s5-2 9-2l1 1 1-1v1h1c3 3 5 7 6 11v3c0 1 0 1 0 0h-1l2 1v7 19a3781 3781 0 00-5 24l-3 8h-1l-4 9-6 8h-1l-6 9c-2 3-6 5-9 7l-1-1-6 5c-3 1-6 2-9 1a828 828 0 01-6-25l1-7a44 44 0 016-13l4-5h2l1 1h1l2-1 1-1 1-2 1-1v-1l3-3c2-1 2-3 1-5l-5-2c-1-1-3 0-5 1l-5-1-4-1h-5l-5 2-2 1v2l1-2 2 1-3 5-4 5v-1l-1 1-1 2h-1l-1-1-4 16-1 17 1 2v3l1 3v3l4 8 5 6h-1l6 4a73 73 0 007 3h1l2 1h4c4 1 7 1 10-1l9-3h2l1-1 2-2 2-1h1l1-1 2-2 1-1 1-1 1-1 7-7a557 557 0 0015-23 327 327 0 0010-27v-3-2-2-1a59 59 0 000-25h0zm107-38h-1l1-1v1zm1 0l-1 1v-1h1zm3 3h-1v-1h1zm-25 3l-1-1h1v1zm1 2l2-1h1v-1l-2 1-1 1zm10-2l-1 1v-1h1zm-3 0l-1 1 1-1zm0 1l1-1 1 1h-1-1zm-19 1l1-1-1 1zm11 0h0zm-16 1v-1l1 1h-1zm3 1h-1-1l1-1v-1 1l1 1zm43 0h-1 1zm-42 1l1-1h-1v1zm-2 0h-1l1-1zm-4 0h0zm-3 1l1-1-1 1zm-1 0v-1 1zm-1 0h-1 1zm2 1v-1 1zm-1 0zm54 4v-2l1-2v1l1 2h-1l-1 1zm-62-2h-1 1zm63 2h-1 1zm1 1h-1v-1l1 1zm-3 0v-1zm2 1v-1 1zm-49 7zm3 1zm0 2h-1l1-1v1zm0 2h-1 1v-1 1zm0 2h-1 1zm40 4l1-1v-1l-1 1v1zm-44 2l1-1-1 1zm2 1v-1 1zm39 1l1-1h-1v1zm-1 0h0zm0 1c0-1 0-1 0 0zm-1 1v-1 1zm-59 0l1-1-1 1zm15 1v-1 1zm43 0v-1l-1 1zm-56 0zm19 3l2-1h-1l-1 1zm-2 0h0zm9 1h-1v-1h1zm-10 0h1-1zm-7 2l1-1v-1l1 1-2 1zm5 0h0zm8 0h1c1 0 0 0 0 0h-1zm-4 1c1 0 1 0 0 0zm-5 2h-2c1-1 1-2 3-2h3l-2 1h-2v1zm-6-1h0c-1 0 0 0 0 0zm-11 0h-1 1zm2 1l-1-1h1v1zm-10 1h-1v-1c0-1 0-1 0 0l1 1zm-4 0v-1h2l-1 1h-1zm-3-1c0 1 0 1 0 0zm23 2h-1 1zm-22 1h1v-1l-1 1zm13 1h-1l1-1v1zm-4 5v-1 1zm-1 70l-5-1v-1l1-1 16-17-2 1-1 1 1-2v-3l2-2h2v-1h-1l1-1 1-1-1 1h-2l2-3 2-3h-1a148 148 0 017-7l-9 3-10 4h-1-1l-4 2-2 2-3 2-1 1-2 1 1-2v-2l2-1v-1l3-3 2-4 3-4v-1l1-1 1-1v-2l2-1 1-2h1v1l4-5c1-2 3-3 6-3l2-2h3v-1-1l10-3 10-3 12-1c4 0 7 1 10 3l2 2 1 3a45 45 0 01-9 26l-8 10a156 156 0 01-22 16 188 188 0 01-17 6l-4 1-6 1zm-7-64l-1-1h1zm-1 1v-1 1zm2 2v-1zm-2 0v-1 1zm3 0l-1 1v-1c0-1 1 0 0 0h1zm-1 2l-1 1 1-1zm-3 4v-1l2-2-1 2-1 1zm-7-1v-1 1zm11 4h-1-1l1-2v-2l1 1 1-1v-1 3h-1zm4-1l-2 1v-1l1-1 1 1zm-12 22l1-4 2-3h1l2-4 2-4h-1v-1h1a100 100 0 005-6l1 1 1 1h-1c1 1 0 2-1 3l-2 3-2 2-2 1h3l-3 4-4 4 2-3-3 3-2 3zm3-21h-1l1-1c1 0 0 0 0 0v1zm4 4l1-1h-1l2-1 1-1v2l-3 1zm-4 4v-1-1l1-1v-1l1-1h-1v-1h2v1l-1 2v1l-1 1h-1v1zm4-2l-1-1h1v1zm3 2c1 0 1 0 0 0zm-8 2l1-2v1h-1v1zm1 0v-1l1 1h-1zm-2 1l-1-1h2l-1 1zm0 2h-2l1-1h1zm-5 4h-1v-1l1-1v2zm0 1v-1zm4 1v-1 1zm5 0v-1 1zm24 0h0zm-25 1h-1v-1l1 1zm-8 1h-1 1zm8 1h-1v-1h1zm-6 2v-1 1zm-8 0v-1 1zm7 0v0zm0 1h-1v-1l1 1zm5-1c1 0 1 0 0 0zm0 2l-1-1h1v1zm-8 0h-1v-1h1zm-9 0c0-1 0-1 0 0zm11 2v-1l1-1v1l-1 1zm-9 0v-1 1zm13 0zm-10 2l1-1h-1zm86 7h0zm-6 8h-1 1zm-12 8h0zm-65 1h-1 1zm61 2l1-1h1v1h-2zm-3 3l2-2-1 1-1 1zm-30-96l-1 2v-1-1zm50 81zm-37-71h-1l-2 1-4 1 1-2v-1l2-1h2l-1 1v1h3zm10-17h-1 1zm0 0l1-3v-3l1-1c0-3-2-5-4-7s-6-3-9-4v2l-1-1-1 1-1 1v1l1 1a69 69 0 01-8 14v1h-1-1v1l1 1-2 1-1 1 1 1-4 5-3 4v-1l-1-1a17 17 0 014-14v-1-1l-7 8-4 9 1 1v1c1 1 0 0 0 0h-1l1 1v1s1 0 0 0v-1l1 2 1 2v-1h1l1 1h-2l-1 2-1 1v-1 2l-3 5-3 3h1l-6 11-8 11v3h-2v3l-2 1 1 1-1 2h1l-1 3 1 1 2 1v1h2v-2l1-1v1l2 1v1l1 2-1-1v-2l1 1h1v-1-1h1v2h1l1 1h1l1-1 1-2v-2h2l1-2v1l-1 2v2c-2 0-2 2-2 4l-4 2-2 4h-1l-1 2v2h-1l-1 3c0 2-1 2-2 1v3l2 2-1 1h1v-1h1v3l1 1v-1l1 1v1l1 1v1h1v1l3 4 3 3 9 6 12 1h1l1-1 7-1 6-3 8-3 7-5 10-6 9-7v-1l1-1 1-1 2-2 2-4-2 2-3 3-3 4-4 2c-2 0-2 2-3 4h-1-1a598 598 0 0020-20h1a5 5 0 001-2l-1 1-1 1 2-3 2-2v-1h1c0 2-1 5-3 7l-4 6 7-11a113 113 0 005-13h-1a34 34 0 00-3-28c-2-3-5-7-9-9-3-3-7-5-12-6 9-5 16-11 22-18h1l1-1-1 1h-1l1-2 2-1 2-5 1-6v-5l-2-4 1 2-2 1-1-1v-1h1v-1c-1 0-1 0 0 0v-1l-1-1v-1l1 1c1 0 0 0 0 0l-2-1v-1l-1-1v-1 1l-1-3-3-2v1-1l-2-1-3-2v1c1 0 1 0 0 0l-5-2v1h1l-3-1h-2 2l-1-1h-1a21 21 0 01-8 0l-2 1-2-1-9 2-8 2h-1-1l-3 1-4 1-4 1-4 2-4 1-9 5-9 5h-1l-1 1-5 4-6 4c0 3 0 6 2 9 1 3 3 5 6 7h1l1-1v-1c0-1 0 0 0 0l4-5 5-4 2-2 2-1 1-1 1-1 1-1v1l5-4c2 0 4-1 5-3l1 1 5-3 4-2-1 1 3-1 2-1v1l1-1c-1 0-1 0 0 0l1-1h2v-1h2-1v1l3-1v-2h1v1l1-1h2-1l-1 1 2-1v-1h1v1h1v-1h1c-1 0 0 1 0 0h1v-1l2-1h2l-1 1c-1 0-1 0 0 0h2l2-2v1c-1 0-1 0 0 0l2-1h4v1h-2l-1 1h5l4 1v-1 1l1-1h1l3 2c1 0 2 1 2 3l-2 4-2 5-1 1v1l-2 2-2 2-4 3-2 2v1l-1 1h-1v1l-6 4-7 4-3 2-3 2h-1-1 1v1l-2 1h-3l1-2 1-1-1 2-1 2-2 1v1h-3l3-1 1-3 2-2h-1v-1l3-5 2-1v-2h2zm134-40v-1h-1v1zm-1 0zm8 2l1-1s0 1 0 0l-1 1zm-7 0h-1l1-1h1l-1 1zm-5 0h-1v-1h1v1zm24 0l-1-1v1h1zm-21 1l1-1v1h-1zm19 0h-1 1zm-25 1h-1l1-1v1zm26 0h-1 1zm-30 0h-1zm4 1l1-1-1 1zm-1 0h-1 1zm-1 1l1-1-1 1zm-4 0h0zm4 1v-1 1zm-1 0c-1 0 0 0 0 0zm-3 1v-1 1zm2 1h-1l1-1h1v-1 1l-1 1zm-3 0h-1v-1h1zm1 1l1-1-1 1zm46 1l-2-1 2 1zm-46 0v-1 1zm35 9v-1-1l1 1 1 2-1-1h-1zm-44-5h-1c-1 0 0 0 0 0l1-1 2-1-2 2zm57-1v-1 1zm-62 2h-1zm-1 1h1v-1h-1zm2 6c-1-1 0-2 1-2 1-1 2-1 2-3h1l1-1-2 3-3 3zm50-3v-1 1zm-3 2v-1 1zm-52 0c0-1 1-1 0 0zm-7 5v-1-1 2zm-1 1v-1c0-1 0 0 0 0v1zm82-1h-1 1zm0 3v-1 1zm-17 0h-1 1zm1 1l-1-1 1 1zm-1 1v0zm-71 1v-1l-1 1zm-2 0zm74 0h-1 1zm-77 7l2-3 2-3v-1l-2 3-2 4zm0-4l2-1 1-2-2 2-1 1zm0 1v-1zm-10 17c2 0 3-1 3-3l2-5 2-4 2-5a55 55 0 00-5 10l-2 3v2l-1 1-1 1zm89-15l-1-1v-1l1 2zm-64 1v-1-1l1 1h-1v1zm-10 1v-1l1-1-1 2zm9-1h-1v-1h1v1zm-6 4h-1l1-1v1c0 1 0 0 0 0zm82 1l-1-1 1 1zm-12 0v-1 1zm-76 1v-1 1zm-6 0h-1zm4 1h-1zm-8 2l1-2-1 2zm6 0h1v-1l-1 1zm0 1h-1 1zm0 2l1-1v-1 1l-1 1zm81-1zm-1 1zm0 3v-1h0v1zm-89 3l1 1v-2c1-1 0 0 0 0l1-1v-1h-1v1l-1 2s1 0 0 0zm100-2v-1 1zm0 2v-1 1zm-87 5v-2l2-3-1 2-1 3zm81-2h-1v-1h1zm-96 0v-1 1zm20 0v-1 1c-1 0-1 0 0 0zm-1 1h1-1zm-19 1v-1h-1 1v1zm14 0v0s1 0 0 0zm12 1h1v-1h-1v1zm-26 0v-1zm15 0s-1 0 0 0zm78 17l-1-2v-1l1-1-1-1v-1-1c-1-2 0-3 1-4v-3-3l1 2v1l1 1v1h-1l1 1v1l-1-1h-1l1 1 1 1h-1l1 1h-1v4l-1 4zm-95-16v-1 1zm15 3l-1-1 1-2 1 1-1 1h1l-1 1zm1-2c0-1 0-1 0 0zm80 1v-1h1l-1 1zm-91 2l1-1h-1v1zm91-1h-1 1zm-82 3v-2l1 1-1 1zm84 13l-1-3 2-3 1-3v-2l1-3v3l-1 1v2l-1 5-1 4zm-99-12l-1-1c1 0 0 0 0 0h1v1zm91-1h0zm0 1zm4 3l-1-2 1 1v1zm1-1zm-5 1zm-90 1h-1v-1h1v1zm93 0v-1zm0 2v-2l1 1-1 1zm15 4l1-2v-2h-1l-1 2 1 2zm-19-3zm4 0zm-1 2l-1-1 1 1zm3 0h-1l-1-1h1l1 1zm-1 2v-1 1zm1 2h-1v-1l1 1zm-4 0c0-1 0-1 0 0zm-1 0c0-1 0-1 0 0zm3 1l1-1-1 1zm5 3h-1l-1-1 1-1 1-2v4zm-7-3v-1 1zm0 1v0zm1 1v-1 1zm12 0h-1 1zm-16 2v-1-1l1 1c1 1 0 0 0 0l-1 1zm-93 1h-1v-1h1v1zm102 0v-1 1zm-100 1h-1v-1h1v1zm4 0v-1l1 1h-1zm95 1v-1l1-1v1l-1 1zm-10 0h-1 1zm-6 12c3-4 4-8 4-12l-1 1c1 1 0 1-1 1v5l-1 3h-1v-1l1 2-1 1v-2l-1-1v2l1 1zm23-9l1-1v-2l-1 3zm-109-2v-1 1zm1 1v-1h1l-1 1zm91 2v-1-1l1 1-1 1zm2 0l1-1-1 1zm-5 0v-1 1zm-89 1l1-1-1-1v2c-1 0 0 0 0 0zm92 0c-1 0-1 0 0 0v-1 1zm14 0v0zm-15 1v-1 1zm16 3l1-2v-1l-1 1v2zm-1-2h-1zm-15 0s0 1 0 0h-1 1zm3 1v-1 1zm-94 0v-1l-1 1zm86 1h1l-1-1v1zm4 0zm3 1v-1 1zm-4 2v-1 1zm-45 2l2-1h-1l-1 1zm-40 0v-1h-1l1 1zm79-1c1 0 1 0 0 0zm-78 2v-1h-1l1 1zm96 0h-1 1zm-95 2v-1-1h-1v1h1zm85 0v-1-1l-1 1 1 1zm-2 5l1-3v-2l-1 1h1l-1 1v1 2zm-80-4v-1 1zm76 0l-1 1v-1h1zm-3 1h-1v-1h1v1zm21-1h-1zm-24 1l1-1h-1zm5 1l1 1v1l-1-1zm-73 1l-1-1v-1l1 1 1 1h-1zm71-1v-1zm3 0v-1 1zm-78 0l1-1-1 1zm74 2l-1-1 1-2v1 2zm1-1l-1-1 1 1zm1 1v-1l1 1h-1zm-1 3l1-2 1-1v2l-2 1zm-71-3h-1c-1 0 0 0 0 0h1zm69 0zm7 1h-1l1-1v1zm-32 0h-1l1-1v1zm41 2v-1l1-2-1 1-1 2h1zm-13-2h-1v-1h1zm-1 1v-2 2zm-5-1h0zm2 1v-1zm7 1v-2 1h1l-1 1zm-29 2l2-1 2-3-3 2-1 2zm24-3v0zm-2 1h-1v-1h1zm7 2v-1-1 2zm-11-1v-1l-1 1h1zm2 0h-1 1zm0 1v-1h1l-1 1zm4-1h-1 1zm1 0zm9 1v-1 1zm2 1h-1l1-1v1zm-51 0l1-1-1 1zm12 1v-1h0v1zm20 0l1-1-1 1zm16 3l1-2 1-2v3h-1l-1 1zm-55-2h-2v-2l1 1 1 1zm16 0v-1 1zm28-1v0zm-33 2h-1 1zm-7 1l-1-1 1 1zm-27 1l-1-2 1 1v1zm59-1h-1zm17 5h-1-1l2-2 1-3h1c0 1 0 0 0 0v1h-1v2l-1 2zm-18-3v-1h-1v1zm-52 0v-1zm69 4h-1l1-1v1zm-1 1zm-75 1l1-1-1 1zm9 0l-1 1v-1-1l1 1zm64 1l1-1-1 1zm-72 1v-1 1zm71 0v-1 1zm-70 3v-1l-1-1v1l1 1zm-1-2h-1 1zm71 1zm-3 3v-1 1zm-68 1h1v-1h-1v1zm68 0h-1v-1l1 1zm-63 10l-1-3 1 3zm1 1h-1 1zm7 9h-1v-1h1zm31 1v-1 1zm-29 0h-1v-1h1zm2 0h-1 1zm0 3v-1zm13 0h-1 1zm-2 1h-1v-1h1zm-8 0v-1h-1v1zm36-166h1l-1 1v-1zm-10 161v-1 1zm-23-121l-1 1v1-1l1-1zm-24 12v2-2zm88 34zm-80 43l1 3-1-3zm65 5v0zm-1 1h1v1-1h-1zm1 1h-1 1zm-38 30v-1 1zm-34-36s1 0 0 0zm56-129v0zm25 19l1 1v1 2h1l1 2 1 3 1 1v1 2l1 2v2l-1-2-1-1a83 83 0 011 5v-1 4l1 2-1-1 1 2-1 2 1 4c1 1 0 2-1 3v1h1v2l-1 2h1c0-1 0-1 0 0h-1v6l-1 6v2c0 1 0 0 0 0l-2 9-3 8 1-1v-1 2l-1 2h1l1-2v1l1-2v-3l1 1v-1-1l-1 1v-1-2h1a8 8 0 011-2h1v1l1-1v3a39 39 0 00-1 5h-1v5c2-1 2-3 3-5 0-1 0-3 2-5l-1 4-1 4v1l-3 5a467 467 0 00-8 18l-1-1v0h-1v-1-1l2-4 2-4v1l2-2 1-3h-1l1-4v-1-2l1 1v-1l1-2v-1-2l1-1c-1 0-2 1-1 2l-1 2-1 2-1 1v-2 0c0-1 0-1 0 0h-1l-1 2v2l-2 4v5l-1 1v-1-2l-1 1 1 1h-1l-1 2v1l-1 2v-3l1-3-1 1v1h-1v-1l-1 2v3h-1c-1 0 0 0 0 0v-2l1-2-1 1v1h-1l-1 2v3l-2 2-1 2v-1l-1 2-1 1h1l-1 2h-1c-1 0 0 0 0 0v1h1-1v1h-1l-1 3-1-1-2 4-3 3-1-1c-1 0 0 0 0 0l-2 2c0 1-1 2-3 2l-1 2v2l-1-1-3 3-3 3-1-1h1l-6 4c-2 2-5 2-9 1l-1-2-1-2 1-1c-2-2-2-5-3-8v-9l1-1h1l2 1 6-1 6-2v-1l1-1 2-1 3-1 1-1h1v-1l5-4c1-1 2-3 5-3v-3l1 1 6-7-3 1h-4-1c-2 2-3 2-5 2h-3l-3 3-4 1 2-2 2-1-1-1h-2c-2 0-4 1-5 3l-6 1 1-1 2-1-3 1-3 1-1-1h-1v-4-3l1-2 1-3 3-10 5-9 3-2 4-1 3-2 2-4-4-2-4-1h-1v-1h-9l-1-1-1 1c0 1 0 0 0 0h-1-1v-1 1h-2l-1 1h-5v1l-1 1-1-1v2c-1-1-1 0-1 1l-2 1 2-4 2-4h-1l1-1 1-1v-1l1-3 2-3h1v-1h1c2-4 4-8 8-12l9-12h1l14-11c6-3 12-5 19-6v1h2v1l1-1 1 1 3 1 2 3v1h-1v-1 4l1-1h-1v-1l1 1zm-9 93l-1 1-1 1v-1l1-2 1 1zM688 68zm0 0v-1h1l-3 2h-1v1h-1 1l-2 2h-2l-3 2-3 3v-1l-7 5-7 6-2 2c0 1-1 2-3 2l-1 3c-1 1-2 2-1 3v-1h1l1-2 1-1 1-1 1-1 2-2 2-2 1-1 2-1 1-1h2l1-2 1-1 2-1 2-1-2 3h-2v1l-2 3-3 2-4 4-4 6 2-2 2-2 1-1v-1h1c0-1 0 0 0 0l4-5-1 2v1l2-3 2-2v1l2-2 1-1-3 4-3 3 2-1 2-1-8 8c-3 2-4 7-6 11h-1v1l-1-1v2l-1 1 1 1-4 5a202 202 0 00-7 14l1-2a24 24 0 01-2 2h1l-2 5-2 4 1-3 1-3-1-2v-1l-1 3-1 2h1l-1 1v-1l-1 4-1 3-1-2 1-2h-1l1-1h1v-2-1h-2v1h-1v1-6l2-5-1 1-1 1v-2l1-1v-3l-2 4v3l1 1-2 3-1 3v-2-1l-1 2v2l-1 2-1 2v3l-1 2h1v-1c-1 0-1 0 0 0v1h1v-1-2l1-2 2-1v-1h1l-2 1-1 2 1 1v1l-1 3-2 1-1-1h1-1v2h-1v3l-1 3 1 1-1 1h1a144 144 0 011 7l-1 1 1 1v-1l1-1 1 3v3l2 2 2 3v1c-1 0-1 0 0 0l1 1 1 1-1 1 1 1v-1c2 1 3 3 3 5h-1v4l-1 4h1v2l1-1v-1 2l-1 2v5l1-2v-3l1 1v3l1 4h-1v1h1l-1 3v4l1-2v-1c1 1 2 2 1 4v-1h-1l1 1-1 1 1 2 2 2-1 1h1v1h1l1 2 1 2v-2l1 2 5 4v1l3 1v-1l1 1h2v2s1 0 0 0l1-1v1h3c-1 0-1 0 0 0h5v1h1l1-1h1v1l2-1c0 1 0 0 0 0h2v-1l1-1 1-1 1 1v1h-1 1l2-2v1h-1l2-1 1-1 3-1h2v-1h-1 2l2-2h2l1-2 1-1h1l2-2 3-3 1-1 1-1 1-2 2-1v-1 1l1-1v-1h1l7-10 6-11v-1l2-1 1-1v-1h-1v1h-1l1 1-2 1v-1l2-3 1-2 2-3 2-3v1l-1 2c2-1 3-3 3-6v0l1-2 1-2v-1-1l1-4c0-2 1-2 2-2v-1h1v-3l2-2 1-2-1-1 1-1c1 0 1 0 0 0v-1l3-7v-8l1-1h1v-1h1l-1-1v-1l1-17-3-16v-1 1c0 1 0 0 0 0v-1-1-3l-1-2v1l1 1-2-2v-3l-1 1-2-4-3-3 1-1-1-1v-1l-4-3-4-3c0-1 0 0 0 0h-1v-1h-1l-2-1-1-1h-2c-1 0 0 0 0 0v1l-2-2-1-1h-1-1l-1-1v-1l-1 1c-1 0 0 1 0 0l-1 2v-1-1h-1-2c-1 1-1 0-1-1h1v1l-1-1-1 1-1-1v1h-1v1c0-1 0-1 0 0h-1v-1l-1-1v1h-1v1h-3l-1-1h1c1 0 0 0 0 0l-1-1-1 1-1 1v-1l-2 2-2 1 1-1h-1c0 1-1 2-3 2v1l-2 1h-1l1-1h1v-1l2-1h-1zm182-28l1-1-1 1zm-4 1v-1 1zm0 4s0 1 0 0l1-1 1 1-1-1-1 1zm-2 2h0zm-2 1v-1l-1 1 1-1h1v1h-1zm3 0s-1 0 0 0zm-1 1l-2 1v-1h1v-1l1 1zm0 1v-1 1zm-5 0v-1h1l-1 1zm-4 2l1-1 1-1v1l-2 1zm6-1l1-1-1 1zm-2 0h1v-1 1h-1zm9 1v-1 1zm-6 0h-1l1-1v1zm-4 2h-1l1-1 1-1v1l-1 1zm-1-1h-1 1zm-1 2v-1l1 1h-1zm-10 0l1-1-1 1zm14 0v-1zm-4 1v-1h-1 1v1zm-4 4l3-2 2-2v1l-2 2-3 1zm-7 14l2-2 1-2h1l1-1a191 191 0 0112-12l-3 4-3 3-5 5c-1 2-3 4-6 5zm6-14l1-1v-1 1l-1 1zm10 1l-1-1h2l-1 1zm-7 0v-1 1zm9 0v-1l1 1h-1zm-5 1v-1 1zm-8 0h-1 1zm8 2l2-2-2 2zm-2 3v-1l2-2-1 2-1 1zm-1-1v-1h1l-1 1zm-4 0h-1v-1h1zm-5 0h-1 1zm-8 0l-1 1 1-1zm11 1h-1v-1h1zm-2 0v-1zm-33 33a144 144 0 019-10c0-1 0-1 0 0h-1l2-1 2-1-1-1v-1h2l1-1v-1l3-5 4-5 3-3 3-3-1 1v3h-1l-1 1-3 4c-2 1-3 3-3 5l-2 1-1 3-1-1-2 3-1 2v1l-1-1-4 6-6 4zm41-31h-1l1-1v1zm-7 0h-1l1-1v1zm9 0v-1 1zm-21 1h-1v-1h1zm9 1l1-1-1 1zm2 0v-1 1zm-1 7l2-3 3-3 2-2-3 5-4 3zm-14-5v-1-1 2zm6 6h-1l1-1 1-1 2-1v-1l2-1 1-1 1-1h1l-2 2-2 3v-1l-1 1-1 2h-2zm-5-6v-1 1zm-2 1h-1l1-1h1v1h-1zm14 3l1-2 1-1-1 1-1 2zm9-1v-1 1zm-26 3l1-2 1-1v1l-2 2zm11-2h-1l1-1v1zm7 2h-1l1-1v1zm-19 0c0 1 0 1 0 0zm20 2v-1h1v1h-1zm-13 12l1-1 3-5 5-5v-1h1v-1l1 1-3 4-3 2-1 3-3 1v2h-1zm-9-12h-1v-1h1zm1-1l-1 1 1-1zm-5 7l3-3 3-4v1c0 1-1 3-3 3l-3 3zm13 0v-1-1l2-1v-3h1l1-1-2 4-2 3zm14-6h0zm-13 1l-1 1 1-1zm5 1v-1 1zm-64 1h-1v-1h1zm-8 0v-1 1zm3 1h-1c1 0 0 0 0 0l1-1v1zm68 0h-1 1zm4 1l1-1-1 1zm-78 0h-1v-1h1v1zm71 4v-2l1-2v1l-1 1v2zm-5-2l1-1v-1 1l-1 1zm14 0v-1h-1v1h1zm-26 0v1-1zm26 1h-1zm-28 2l2-1-2 1zm-37 1h-1 1zm30 9h-1l1-1v-1l3-3 3-3v1l-2 1-1 3-2 2v1h-1zm19-5l1-2 2-1-2 2-1 1zm8-1l1-1 1-1-1 1-1 1zm-12 3v-1l-1-1 2-2 2-1-1 3-2 2zm11-4zm-9 8c0-2 1-3 3-4l2-4h1v1l-1 1v1l-2 3-3 2zm-7-1l-1 1 2-2 2-2-1 1-1 2h-1zm-11-1l-2 2 1-1 1-1zm-33 2v-1 1zm31 8l1-1 1-2h-1l-1 1 3-3 3-2v-1l1-1-2 3-2 4-2 1-1 1zm26-9c-1 0 0 1 0 0 1 0 1 0 0 0zm-8 4v-2h2l-1 1-1 1zm-17-2h1-1zm-2 0h0zm3 2l1-1v-1 1l-1 1zm-8 23l3-5 4-4-2 2-1 3 9-10c3-4 6-8 10-10l-1 1-2 2-2 2-2 2-4 6-4 5h-1l-1 2-1 1-3 2v-1l-1 1-1 1zm5-23l-1-1h1v1zm11 1v-1h1l-1 1zm4 2l2-2 1-1v2l-3 1zm-8-3v0zm-9 1v-1zm-1 1v-1 1zm24 0h0zm1 0h0c-1 0 0 0 0 0zm-24 1h-1v-1h1v1zm9 3l1-2 2-2v2l-1 1-2 1zm13-2v-1 1zm-19-1c0 1 0 1 0 0zm14 1c0-1 0-1 0 0zm-24 8v-1l1-2 3-2 2-2v-1 2l-3 3-3 3zm18-1l3-4 2-3h1v1l-2 1-1 3-3 2zm11-6l1-1-1 1zm-1 2v-2 2zm-20 1v-1h1l-1 1zm19 1v-1 1zm-25 6h-1v-1l2-2 2-2 1-1h1a52 52 0 00-4 5l-1 1zm24-5l-1-1 1 1zm-14 0s1 0 0 0zm2 1v-1 1zm1 3l3-3-1 2-2 1zm-1 2v0l1-1s1 0 0 0v1h-1zm-24 4l-1-2v-1l1 1v2zm20 0v-1h1l-1 1zm-3 0l1-1-1 1zm-16 1v-1l1 1h-1zm14 5l2-3 2-2-1 3-3 2zm0-2c0 1 0 0 0 0zm5 2v-1 1zm-2 1l1-1v1h-1zm2 1h0zm-3 1v-1h1l-1 1zm2 0h1v-1l-1 1zm-1 1l1-1-1 1zm-32 10v-1c1 0 1 0 0 0h-1a162 162 0 017-7l-3 4-3 4zm3-6c0-1 0-1 0 0zm18 0c0 1 0 1 0 0zm-21 2h1-1zm-2 13l1-2 1-2h1l1-2 3-2 3-4v1l-5 5-5 6zm24-8h-1l1-1v-1 1h1l-1 1zm-13-1h-1 1zm18 7l-4-5c0-1 0-2 1-1l1 2 1 1 1 3zm-32-2l2-3 2-1-2 2-2 2zm25-4l-1 1 1-1zm7 1l-1-1h1zm4 0h-1v-1l1 1zm-4 1l-1-1 1 1zm-23 9l1-1v-1l2-1 1-2 1-1 2-1-3 3h1l-5 4zm21-4l-1-1v-2l1 2v1zm4-2h-1v-1l1 1zm5 1h-1v-2 1l1 1zm-39-1l1-1-1 1zm35 0h-1 1zm0 9l-2-1v-2-2 1h-1v-2h1l-1-3 2 4 1 5zm-36-8h-1 1zm21 2h-1v-1h1v1zm18 0v0zm-39 1h-1 1zm40 0h-1 1v-1 1zm-7 1l-1-1 1 1zm-34 4v-1l1-1 2-2-1 2-2 2zm22-2v-1h1l-1 1zm16 1l-1-2 1 1v1zm-3 4l-1-2-1-4 1 1v2l2 2-1 1zm-25-3h-1l1-2 2-1-1 2-1 1zm7-1l1-1h-1v1zm22 0s0 1 0 0c-1 0-1 0 0 0v-1 1zm3 0h-1 1zm-5 2v-2l1 1-1 1zm2 1l1-1-1-1h1v1l-1 1zm-32 1v-1l1-2v1l1-1-1 2-1 1zm-3 12h2l1-1 1-2 2-2 2-2 3-4 3-3-5 5-5 5-2 2-2 2zm-6-11v-1l1-1-1 1v1zm50-1v-1 1zm31 83l-1-1v-2l-1-2-2-2v-1 1l1 2 1 2-1-1-2-1v-1l1-1h-2l-1-2v-3l-1-3-1 1 1-1-3-3v-2l-1-1-1-1h-1v-2l-1-1v-3l-2-1v2l-2-3-1-4h-1v1l-1-3-1-3v-1h-1v1h-1l1-2c1-1 0-1-1-1v1l-1 1v-5h-1l-1-2-2-1v-1-1l-1-1v-2h-1l1-1-2-6-4-5v-2l-1-1-1-2v-3h-1v-2l-1-1 1-1-1-1v-2l-1-1h-1v-2l1 2v-1-1l1 1 1 1v1 1h1l1 6 3 6 1 1-2-3c-1-1 0-2 1-3h1v1l-1 1 1 1 2 1 1 4 1 3 1 6 3 3-1 1v1h1v-1l1 2v2h1l2 1-1 4c1 1 1 2 3 2v3l2 1v2l2 1 1 4 1 3 1-2-1-1-1-2 1-1-3-3-3-3 1-1v-1l-1-1v-1l-1-4-2-3h1l1 2v1l1-1v-1l1 3 2 1v3l1 1 1-1 1 1-1 2c2 0 3 2 3 4l2 3v2l2 2v3l-1 2-1-1c-1-1 0-1 1-1l-2-4-2-4v2l1 3-1 1v2l2 1-1 1 1 1 1-1v1l1 1v-1h1l1 2 1 2 1-1 1 1 1 2h-1c-1-1 0 0 0 0h-1l1 1v1l1-1h1l-1 1 1 3c1 1 2 2 1 4l1 1-1 2 2 2-1 1c-1 1 0 0 0 0zm-67-82h1v-1l-1 1zm31 6l-2-3-1-3 2 2 1 4zm-38-5l1-1-1 1zm-8-1l-2 2 2-2zm14 2l1-1h-1v1zm34 1v-1-1 2zm-36 1l1-1 1-1-2 2zm39 4l-1-1v-1-1-1l1 1v3zm-39-3v-1h-1l1 1zm20 2h-1 1zm16 1l-1-1 1 1zm2 1l-1-1v-1h1v2zm-3 0l-1-1 1 1zm-41 5l3-3-3 3zm50-1v-1 1zm-3 0v-1zm-48 1h1l-1-1zm49 0h-1 1zm1 2v-2 1h1l-1 1zm2 2l-1-1v-1l1 2zm-21 1v-1h1l-1 1zm21 5c-1 0-2 0-2-2l-1-3h1v2l1 2 1 1zm0-5h-1 1zm-19 2h-1v-1l1 1zm20 0v-1 1zm-60 1v-1h1l-1 1zm60 0h-1v-1l1 1c0 1 0 0 0 0zm-13 4l-1-2v-2l2 1-1 3zm-49-3h-1 1zm41 1zm22 1l-1-1h1v1zm3 9l-2-2-2-2-1-3v-3l1 1v2l3 2c-1 1-1 2 1 2v3zm-2-8l-1-1h1v1zm-13 0v-1 1zm-53 0h-1v-1h1v1zm60 1l-1-1h1v1zm-1 4s0 1 0 0zm5 1v-1h1l-1 1zm-9 1v-1 1zm17 1h-1v-1l1 1zm-6 1l-1-1h1zm6 3v-1l-1-2h1l1 1v1zm-98-1h-1l1-1v1zm85 2l-1-1v-1h1l1 1-1 1zm-6 0l-1 1v-1l1-1v1zm22 0l-1 1 1-1zm-25 1v-1 1zm24 2v-1 1zm-22 4v-2 2zm14 1h-2l1-2 1 1v1zm11 1l-1-1h1v1zm-18 0l-1-1 1 1zm-5 1v-1l-1-1 1 2zm28 2h-1 1v-1zm-12 6l-1-1v-1h-1l-1-1-1-2 1-1 1 3h1l1 1 1 1v1h-1zm-15-5v-1l-1 1h1zm25-1h-1 1zm1 2l-1-1h1v1zm1 1l-1-1 1-1v2zm-21 5v-4l-3-2 2 2 1 2v2zm-5-5v-1h-1l1 1zm1 1l-1-1 1 1zm24 0v1-1zm9 1l1-1h-1v1zm-32 3v-2l-1-2v2l1 2zm19 0l-1-4h1l1 2-1 2zm-10-2h-1l1-1v1zm5 2l-1-1v-1-1l1 1h1v1l-1 1zm1 0v-1 1zm12 1l-1-1v-1l1 2zm-14 1v-1h1l-1 1zm12 2l-1-1v-2l1 1 1 1-1 1zm-7 5h-1l-1-1v-1l-1-1 1-1-1-4 1 1 1 1v-1 1l1 1h-1v3l1-1c0-1 0 0 0 0v1l1 1-1 1zm-16-4v-2l-1-2 1 2v2zm15 0l1-1-1 1zm14 1h-1v-1l1 1zm-27 2v-2l-1-1 1 3zm16 2l-1-2v-2h1v4zm1-2h-1v-1h1v1zm-3 0v-1h-1l1 1zm4 3l-1-1 1 1zm8 0v-1 1zm-9 2v-2l1 1-1 1zm-13 0l-1-1 1 1zm13 1v-1 1zm10 1v-1h1l-1 1zm-8 0h-1v-1l1 1zm-12 6v-4l-2-2 1 3 1 3zm22 3l-1-2v-2 2l-1-1-1-1h1l-1-2v-3h1l1 1 1 3 1 2-1 1v-1 3zm-19-4v-2l-1-1v1l1 2zm1 6l1-2-2-1-1-1 1 2 1 2zm16-2v-1 1zm3 2v-3 3zm-1 3l-1-1 1-1v2zm12 0v-1 1zm-16 2v-1 1zm20 1l-1-1 1 1zm-21 0h-1 1zm6 2h-1v-1l1 1zm-3 3l-1 1 1-1zm9 5v-1 1zm1 4v-1c0-1 0 0 0 0v1zm6-221l-1 1h-1 2v-1zm-2 3v0zm-95 32v1zm64 15c0-2 1-3 2-3l-1 1-1 2zm0-1h-1v1h1l-1 1-1 2h-2l1-2 2-3h1zm-22 13v1h-1l1-1zm37 124zm14-180l1-1 1-1v2l-1 1-1-1zm-24 39v1l-1-1h1zm-17-2v1s-1 0 0 0v-1zm-14 16l-1 1v-1zm34-14s-1 0 0 0zm-23 121v1l1-1v1l-1-1zm0 0v1l1 1v-1h1l1 2 2 2v2l2 2v2l-1-1-1-1v1l1 1 1 2 1-1 2 2v3h1l1 4v4l1 1h1v-3c0 2 1 3 3 4l1 3h-1l-1-1 1 1v2l1-1v2l1 2c2 0 2 1 2 2v2l1-1 1 2 2 2 1-1v3h1l1-2 1 2 1 2v-1 2l5 4 5 4 1-1 1 1v1l2-2c1-1 2-2 1-3l1-1h1l-1-1v-2l1-1c1-1 0-1-1-1l2-1v-2-3h1v-2l1-2 1-3v-1l-1-6-2-6-2-4-3-4-2-4v-2l-1-2-1-1v-1l-1-1-2-6-4-7-1-2-2-2-1-1 1 2v2h1-1v1l1 2h-1l1 1v2l1 4v-1l-1 1 2 1 1 2h-1v3l1 2 1 2v3l1-1v1c-2 0-3-1-3-2l-3-3v-1h-1c0 1 0 0 0 0v-1l-2-2-1-2-2-2v-3l-2-1-1-2v-1-2l-1-1-2-2v-1l1-1-4-7-4-8-4-11-5-10-3-6c0-3-1-5-3-7h1v-1c-2 0-3-2-3-4l-1-4-2-4 3-2c0-1 1-2 3-2l2-3 3-3-3 2c-1 2-2 2-4 2l8-8 7-8h1v-1h-1l-1 1 2-2 1-2h-1v-1l2 1 2-2 2-1h-2l6-6h1l1-1v-1l1-1h-1-1l1-1 1-1v-1l4-2c2 0 2-2 2-4v1h-1l7-9a289 289 0 0034-44h-2l-2 1h-1a1833369 1833369 0 00-3 1v1l-3 1h-1v1h1l-2 1-2 2-2 1c0 1-1 2-3 2v-1l2-1 1-2c-2 0-3 2-4 3-1 2-3 3-5 3l-4 5-5 5-3 6-6 4-2 2-1 1 4-7c2-1 3-4 4-6l2-3-6 6-5 7h-1l-4 5-5 5h1v1h-1l-1 1v1h-1v1l-2 2-2 3-2 2-2 2-1 1v1l-2 1-2 2v1h-1l-6 8-7 9-3-7-3-6a348 348 0 01-10-16c1 0 0 0 0 0l-2-2-2-1h-1v1h-1v0l-1-1-3 1c-1-1-2 0-3 1l-1-1-1-1v1l-1-1v3c0-1 0-1 0 0h-2v1h-1v2h-1l1 8a159 159 0 005 12l2 7h1l1 3 1 3s0 1 0 0h1l1 3 1 2 2 5 1 2 1 2-2 3-2 2c0 1 0 1 0 0h1l-1 1-1 1-6 7-1 1-7 10h-1a232 232 0 01-11 14l-1 2-2 1-1 1-1 2-1 2-2 3-4 3-3 5v1h-2v2l-1 1-1 1 1 2-1-1-1 1 1 4 1 4-1-1 1 2v2l1-1c0-1 0 0 0 0l1 1 1 1v-1h1v2h1v1 1l1-1v2h1v1l1 1 1 1 1-2h2l-1 1 1 1v-1l1 1v-2-1l1 1 2-5 3-4 1-3 2-3a670 670 0 007-9l3-4 4-5 4-5h-1-1l-1 3h-3l2-2 2-1h-1a268 268 0 0121-23c0-1 0-1 0 0l-2 2-1 2 1-1h1l1-2 1 1v1h1s0-1 0 0v2h1v1h1v2l1 1v4h1a57 57 0 005 11c0 1 0 1 0 0h1v3l1 1-1 2 2 1v2l1-1v-1 3l2 3-1-1 1-2v1l1 1h1l-1 1-1 1 1 1v2l1-1v-1l1 2h1l1-1-1 2-1 1c1 3 1 5 3 7l3 7v-1-1l-1-2 1-1v2h1v2l1 1-2 1h1z"/></g></svg>