<svg id="logo" viewBox="0 0 930 270" xmlns="http://www.w3.org/2000/svg"><g id="bentobox"><path d="M81 225c8 0 14-3 17-14l7-30-8-28-3-7 3-7 6-21-9-29c-3-10-8-11-15-11H11v147zm-6-85H32V96h42c2 2 3 3 4 9l4 13-3 13-4 9zm2 66H32v-48h45l4 9 3 14-3 16-4 9zm134 19l6-22-21-5-3 8h-41v-46h37l3-9-3-10h-37V96h41l3 9 21-4-6-23h-80v147zm50 0V117h1l55 108h18l5-21V78h-21v107L262 78h-17l-5 21v126zm159 0V96h36l-4-18h-85l-4 18h36v129zm119 0c9 0 15-3 18-18l13-55-13-58c-3-14-9-16-18-16h-43c-9 0-15 2-18 16l-13 58 13 55c3 15 9 18 18 18zm-5-19h-33c-2-1-4-4-5-10l-9-44 10-48c1-5 2-7 4-8h33c2 1 3 3 4 8l10 48-9 44c-1 6-3 9-5 10zm128 19c8 0 14-3 16-14l8-30-8-28-3-7 3-7 5-21-8-29c-3-10-9-11-15-11h-68v147zm-7-85h-42V96h42c2 2 3 3 4 9l4 13-4 13-3 9zm3 66h-45v-48h45l3 9 4 14-4 16-3 9zm118 19c9 0 15-3 18-18l12-55-12-58c-3-14-9-16-18-16h-43c-9 0-15 2-18 16l-13 58 13 55c3 15 9 18 18 18zm-5-19h-33c-2-1-4-4-5-10l-9-44 10-48c1-5 2-7 4-8h33c2 1 3 3 4 8l10 48-9 44c-1 6-3 9-5 10zm71 19l27-67h6l27 67h23l-28-72c-2-3-2-5 0-9l28-66h-22l-27 61h-8l-26-61h-22l28 66v9l-28 72z"/></g></svg>