<svg id="logo" viewBox="0 0 930 270" xmlns="http://www.w3.org/2000/svg"><g id="bentobox"><path d="M198 3c4 2 7 5 9 9s3 8 3 19v148c0 11-1 15-3 19s-5 7-9 9-8 3-19 3H31c-11 0-15-1-19-3s-7-5-9-9-3-8-3-18V31c0-11 1-15 3-19s5-7 9-9 8-3 18-3h149c11 0 15 1 19 3zM69 23H46c-8 0-11 1-14 3-3 1-5 3-6 6-2 3-3 6-3 14v118c0 8 1 11 3 14 1 3 3 5 6 6 3 2 6 3 14 3h23c8 0 11-1 14-3 3-1 5-3 7-6s2-6 2-14V46c0-8 0-11-2-14s-4-5-7-6c-3-2-6-3-14-3zm95 95h-23c-8 0-11 0-14 2l-7 7c-2 3-2 6-2 14v23c0 8 0 11 2 14s4 5 7 6c3 2 6 3 14 3h23c8 0 11-1 14-3 3-1 5-3 6-6 2-3 3-6 3-14v-23c0-8-1-11-3-14-1-3-3-5-6-7s-6-2-14-2zm0-95h-23c-8 0-11 1-14 3-3 1-5 3-7 6s-2 6-2 14v23c0 8 0 11 2 14l7 7c3 2 6 2 14 2h23c8 0 11 0 14-2s5-4 6-7c2-3 3-6 3-14V46c0-8-1-11-3-14-1-3-3-5-6-6-3-2-6-3-14-3z" fill-rule="evenodd" transform="translate(0 30)"/></g></svg>