<svg id="logo" height="270" viewBox="0 0 930 270" xmlns="http://www.w3.org/2000/svg"><g id="bentobox"><path d="m67 109v29h-29v-29zm0 88h-29v-29h29zm0-87.8v-29.2h-58v146h87v-116.8zm146 116.8v-29.2h-58v-29.2h29v-29.2h-29v-29.2h58v-29.2h-87v146zm58 0v-116.8h29v-29.2h-58v146zm59 0v-117h-29v117zm87 0v-116.8h29v-29.2h-87v29.2h29v116.8zm146 0v-146h-87v146zm-29-29h-29v-87h29zm116-88v29h-29v-29zm0 88h-29v-29h29zm0-87.8v-29.2h-58v146h87v-116.8zm146 116.8v-146h-87v146zm-29-29h-29v-87h29zm88-59v-58h-29v58zm58 0v-58h-29v58zm-29 30v-29h-29v29zm-29 58v-58h-29v58zm58 0v-58h-29v58z"/></g></svg>